<?xml version="1.0" encoding="utf-8"?>
<!-- Generator: Adobe Illustrator 22.0.1, SVG Export Plug-In . SVG Version: 6.00 Build 0)  -->
<svg version="1.1" id="art" xmlns="http://www.w3.org/2000/svg" xmlns:xlink="http://www.w3.org/1999/xlink" x="0px" y="0px"
	 viewBox="0 0 27.1 79.5" style="enable-background:new 0 0 27.1 79.5;" xml:space="preserve">
<style type="text/css">
	.st0{fill:#5F4638;}
</style>
<path id="arrow" class="st0" d="M21.8,24.3c-1.1-0.7-0.1-1.3-0.9-1.9c0,0-3.9-1.1-4.5-7.5c-0.6-6.4-0.6-9.7-0.8-10.6
	C15.2,2.5,14.7,1,13.6,0h0c-1.2,1-1.6,2.5-1.9,4.3c-0.2,0.9-0.2,4.2-0.8,10.6c-0.6,6.4-4.5,7.5-4.5,7.5c-0.9,0.6,0.2,1.2-0.9,1.9
	C4.9,24.6,0,26.9,0,30c0,3.2,3,4.2,3,4.2c1.7,0.7,0.6,2.1,2.8,3.4c0.9,0.6,0.5,1,0.3,1.9c-0.3,1.3,1.7,1.2,3,1.8
	c1.3,0.6,1.8,1.6,1.8,3c0,1.7-2.3,1-2.3,2.8c0,1.7,2.1,1.4,2.1,2.8c0,1.7-1.1,4.1-1.1,6.5c0,5.3,0.5,6.2,0.7,8.1
	c0.2,1.9-1.3,2.8-1.3,2.8c-1.6,1.3-2.5,3.2-2.5,5.4c0,3.9,3.1,7,7,7c3.9,0,7-3.1,7-7c0-2.2-1-4.1-2.5-5.4c0,0-1.5-0.8-1.3-2.8
	c0.2-1.9,0.7-2.8,0.7-8.1c0-2.4-1.1-4.8-1.1-6.5c0-1.3,2.1-1,2.1-2.8c0-1.8-2.3-1-2.3-2.8c0-1.4,0.4-2.4,1.8-3s3.4-0.5,3-1.8
	c-0.2-0.9-0.6-1.3,0.3-1.9c2.2-1.3,1.1-2.8,2.8-3.4c0,0,3-1,3-4.2C27.1,26.9,22.2,24.6,21.8,24.3z M10.3,35.8c0.1,0.4-0.1,1-0.3,1.4
	c-0.3,0.4-0.6,0.7-1,1.1c-0.1-0.6-0.7-1.8-0.9-2c-0.6-0.9-0.9-1.7-0.5-3.1c0.2-0.7-0.6-2.4-2.2-1.6c-1.6,0.9-2.9,0.1-2.9-1.4
	c0-0.6,0-1,0.4-1.6c1.3-2.3,5.3-2.4,6.8-0.4c0.5,0.6,0.9,1.7,0.9,2.3C10.5,32.2,9.8,33.6,10.3,35.8z M17.8,72.5
	c0,2.3-1.9,4.2-4.2,4.2c-2.3,0-4.2-1.9-4.2-4.2c0-2.3,1.9-4.2,4.2-4.2C15.9,68.3,17.8,70.2,17.8,72.5z M21.8,31.6
	c-1.6-0.8-2.4,0.9-2.2,1.6c0.4,1.3,0.1,2.1-0.5,3.1c-0.2,0.2-0.8,1.4-0.9,2c-0.3-0.4-0.7-0.6-1-1.1c-0.2-0.3-0.4-1-0.3-1.4
	c0.4-2.2-0.2-3.6-0.2-5.4c0-0.6,0.4-1.7,0.9-2.3c1.5-2,5.5-1.9,6.8,0.4c0.3,0.6,0.4,1,0.4,1.6C24.7,31.6,23.4,32.5,21.8,31.6z"/>
</svg>
