<svg xmlns="http://www.w3.org/2000/svg" xmlns:xlink="http://www.w3.org/1999/xlink" width="68" height="43" viewBox="0 0 68 43"><defs><path id="mesma" d="M748.49 4580.94c.242.653.646 1.293.697 1.961.216 2.858.3 5.727.488 8.587.137 2.083.358 4.197 1.612 5.935.762 1.053 1.83 1.876 2.72 2.84.39.421.62 1 1.029 1.395.596.576 1.235 1.146 1.95 1.548 1.312.739 2.458 1.58 3.216 2.952 1.15 2.086.159 4.958-2.078 5.735-.842.293-1.322.724-1.463 1.727-.086.622-.648 1.376-1.206 1.679-.698.38-.904.636-.659 1.416.521 1.66.139 2.138-1.584 2.192-1.882.059-2.92 1.07-2.996 2.893-.033.767.187 1.304.894 1.749 1.74 1.096 1.657 2.186-.073 3.203-.3.177-.525.831-.47 1.222.249 1.82.585 3.63.934 5.436.59 3.043.107 6.036-.478 9-.195.99.045 1.56.756 2.109 1.778 1.37 3.164 3.009 3.373 5.378.156 1.77-.167 3.328-1.372 4.801-.938 1.149-1.812 2.176-3.252 2.643-1.412.458-2.69.503-4.156-.1-1.311-.538-2.555-.97-3.466-2.138-2.625-3.363-2.163-7.765 1.261-10.213 1.197-.856 1.344-1.643 1.102-3.042-.687-3.956-.96-7.951.23-11.896.168-.56.192-1.163.333-1.733.187-.752.044-1.28-.732-1.609-.746-.315-1.323-.793-1.255-1.768.067-.988.784-1.127 1.496-1.375.285-.1.62-.374.718-.647.513-1.422-.503-3.346-1.946-3.768-.297-.087-.61-.116-.913-.184-1.804-.4-1.935-.67-1.515-2.46.069-.297-.252-.875-.546-1.034-.917-.496-1.519-1.058-1.624-2.218-.04-.447-.718-.967-1.22-1.218-2.265-1.131-3.172-2.795-2.596-5.261.16-.69.54-1.468 1.065-1.9 1.06-.873 2.232-1.656 3.468-2.238.725-.34 1.356-.373 1.17-1.463-.053-.317.573-.892 1.006-1.133 2.867-1.6 3.837-4.31 4.18-7.324.374-3.276.578-6.571.9-9.853.06-.61.328-1.197.499-1.794l.503-.032m-.13 65.482c-2.243-.008-4.391 1.95-4.42 4.028-.032 2.274 2.059 4.381 4.34 4.373 2.357-.008 4.006-1.74 4.043-4.246.035-2.397-1.634-4.146-3.963-4.155m-2.587-38.088l.178-.057c-.251-.72-.357-1.548-.78-2.142-1.476-2.066-5.456-1.955-6.818.193-.356.562-.609 1.445-.44 2.044.475 1.673 1.302 1.95 2.877 1.084.703-.386 1.31-.384 1.77.189.29.364.595 1.1.425 1.39-.723 1.239-.126 2.147.487 3.113.163.257.27.555.377.845.148.4.27.811.402 1.218.322-.349.701-.66.947-1.056.197-.317.408-.794.308-1.1-.595-1.839-.234-3.6.263-5.37.03-.108.004-.234.004-.351m4.955 5.381c.134.484.25 1.1.486 1.664.132.315.465.545.707.813.175-.316.375-.622.52-.952.309-.697.428-1.566.919-2.075.786-.814.946-1.576.677-2.637-.108-.425.125-1.187.457-1.409.349-.233 1.004-.029 1.519.039.168.022.305.232.472.33.889.515 1.417.348 1.625-.659.111-.538.065-1.2-.15-1.7-.835-1.943-3.951-2.88-5.974-1.866-1.665.835-2.13 3.087-1.178 5.17.247.54.195 1.24.194 1.867-.001.42-.156.839-.274 1.415m-6.245-11.845c.153.258.241.48.391.648.907 1.012 1.809 2.031 2.767 2.994.143.144.664.12.852-.03 1.056-.834 2.096-1.696 3.062-2.632.227-.22.343-.906.18-1.129-.918-1.247-1.96-2.4-2.91-3.624-.519-.668-.838-.783-1.375.026-.708 1.064-1.57 2.024-2.37 3.027-.188.237-.386.466-.597.72"/></defs><g><g transform="rotate(120 1717.25 2113.675)"><use fill="#5f4638" xlink:href="#mesma"/></g></g></svg>