<svg xmlns="http://www.w3.org/2000/svg" xmlns:xlink="http://www.w3.org/1999/xlink" width="146" height="18" viewBox="0 0 146 18"><defs><path id="55oga" d="M713.738 1332.8c1.61 2.452 3.174 4.83 4.72 7.183-1.534 2.604-3.059 4.93-5.082 7.004-5.044-3.307-10.488-5.185-16.136-6.76.78-.285 1.558-.566 2.334-.85l-5.663.002c-.001-.002.003-.005-.001-.008-.188.005-.422.008-.683.01h-3.671c-10.798-.036-28.66-.299-41.753-.118-1.036.483-1.125 1.736.06 2.063 10.419-.057 11.834-.11 26.658-.22l2.189-.017v.025c.33.005 12.442.01 12.823.014 5.889.088 11.45 1.972 16.799 4.312 1.83.8 3.545 1.863 5.282 2.859 1.713.987 2.005 1.028 3.332-.5 1.246-1.435 4.678-5.675 5.365-6.55.688.875 4.12 5.115 5.366 6.55 1.325 1.528 1.617 1.487 3.331.5 1.737-.996 3.452-2.059 5.282-2.86 5.352-2.34 10.91-4.223 16.798-4.31.383-.006 12.496-.01 12.824-.015 0-.007.003-.016.003-.025l2.188.018c14.63.108 15.854.16 26.12.217 1.085-.264.985-1.891 0-2.068-13.247-.167-30.51.089-41.158.124h-3.672a32.509 32.509 0 0 1-.681-.009c-.003.003.001.006 0 .008l-5.663-.002c.776.284 1.555.565 2.334.85-5.647 1.575-11.09 3.453-16.137 6.76-2.022-2.074-3.547-4.4-5.083-7.004 1.545-2.353 3.11-4.731 4.724-7.184 4.475 2.943 9.266 4.79 14.148 6.573 3.288-.002 8.863-.004 8.557-.007-1.373-.013-2.822-.08-4.105-.503-5.52-1.824-11.026-3.715-16.085-6.63-3.107-1.788-3.137-1.814-5.233 1.15-1.302 1.84-2.476 3.762-3.846 5.859l-.004-.009v-.017c-.003.003-.005.007-.008.008l-.007-.008v.017c0 .003-.003.004-.006.009-1.367-2.097-2.545-4.019-3.845-5.859-2.095-2.964-2.127-2.938-5.234-1.15-5.057 2.915-10.562 4.806-16.084 6.63-1.282.422-2.73.49-4.103.503-.309.003 5.267.005 8.556.007 4.881-1.783 9.675-3.63 14.15-6.573m-14.164 6.578l.014-.005c2.49.002 3.668.003-.014.005zm41.461-.005l.014.005c-3.684-.002-2.505-.003-.014-.005z"/></defs><g><g transform="translate(-647 -1331)"><use fill="#5f4638" xlink:href="#55oga"/></g></g></svg>