<svg xmlns="http://www.w3.org/2000/svg" xmlns:xlink="http://www.w3.org/1999/xlink" width="18" height="105" viewBox="0 0 18 105"><defs><path id="7l5za" d="M721.191 4506.347c.217 1.206.605 2.41.624 3.619.114 6.957.14 13.916.195 20.875.003.393.027.789-.003 1.18-.138 1.807.324 3.127 2.226 3.864 1.532.595 2.49 1.9 2.832 3.635.13.655.509 1.378.995 1.823 2.578 2.364 1.595 4.56.175 6.707-.536.81-1.291 1.49-.556 2.6.114.17-.137.799-.386.97-2.465 1.7-3.084 4.306-3.448 7.03-1.114 8.372-.934 16.792-.8 25.201.06 3.885.453 7.764.677 11.647.067 1.18.581 2.069 1.483 2.807 2.07 1.694 2.942 3.88 2.508 6.563-.432 2.662-1.912 4.5-4.36 5.51-2.532 1.046-4.875.455-6.85-1.276-3.59-3.144-3.278-8.22.45-11.2.662-.528 1.149-1.637 1.212-2.514.764-10.634 1.173-21.278.257-31.925-.218-2.53-.606-5.05-.99-7.562-.282-1.839-1.361-3.215-2.8-4.31-.485-.37-.825-.608-.297-1.293.22-.286.06-1.026-.142-1.458-.489-1.052-1.077-2.06-1.672-3.057-.742-1.242-.43-2.478.364-3.4 1.013-1.177 1.793-2.357 2.214-3.89.454-1.659 1.848-2.594 3.392-3.132.916-.32 1.21-.89 1.231-1.749.116-4.833.247-9.665.336-14.499.068-3.694.067-7.39.133-11.085.011-.568.227-1.132.348-1.698l.652.017m-.209 30.829c-2.274-.01-3.66 1.138-4.098 3.482-.17.915-.457 1.622-1.225 2.279-.512.437-.768 1.452-.735 2.191.032.772.472 1.566.866 2.276.794 1.432 1.144 1.4 2.582.632 1.467-.784 3.053-1.114 4.642-.195 2.005 1.16 2.007 1.157 3.277-.844.063-.099.133-.194.186-.298.835-1.612.578-2.866-.642-4.222-.457-.51-.753-1.259-.896-1.947-.45-2.167-1.776-3.344-3.957-3.354m-2.715 66.549c-.014 1.552 1.086 2.773 2.511 2.786 1.58.015 2.91-1.235 2.902-2.725-.009-1.542-1.135-2.73-2.6-2.742-1.775-.014-2.798.96-2.813 2.681"/></defs><g><g transform="translate(-712 -4506)"><use fill="#5f4638" xlink:href="#7l5za"/></g></g></svg>