<?xml version="1.0" encoding="utf-8"?>
<!-- Generator: Adobe Illustrator 22.0.1, SVG Export Plug-In . SVG Version: 6.00 Build 0)  -->
<svg version="1.1" id="Layer_2" xmlns="http://www.w3.org/2000/svg" xmlns:xlink="http://www.w3.org/1999/xlink" x="0px" y="0px"
	 viewBox="0 0 892.4 638.1" style="enable-background:new 0 0 892.4 638.1;" xml:space="preserve">
<style type="text/css">
	.st0{fill:#F7DAC6;}
	.st1{fill:#5F4638;}
</style>
<path id="framef7dac6" class="st0" d="M0,0v638.1h892.4V0H0z M841.2,612.3c0.1,0.9,0.1,1.9,0.2,3.1c-0.8-0.2-1.4-0.4-2-0.6
	c-2.3-0.9-4.7-1.8-7-2.7c-5.9-2.4-11.9-4.3-18.3-4.7c-2.6-0.2-5.2-0.3-7.8,0.3c-1.2,0.3-2,0.2-2.8-0.8c-0.2-0.2-0.4-0.4-0.6-0.6
	c-4.7-4.2-10.2-6.3-16.5-5.9c-7.3,0.4-13.5,3.3-18.1,9c-2.1,2.6-3.5,5.7-4.4,9c-0.1,0.2-0.1,0.5-0.1,0.7H128.6
	c0-0.2-0.1-0.5-0.1-0.7c-0.9-3.3-2.3-6.3-4.4-9c-4.6-5.7-10.8-8.6-18.1-9c-6.3-0.4-11.8,1.8-16.5,5.9c-0.2,0.2-0.4,0.3-0.6,0.6
	c-0.7,0.9-1.6,1.1-2.8,0.8c-2.6-0.6-5.2-0.4-7.8-0.3c-6.4,0.4-12.4,2.3-18.3,4.7c-2.3,1-4.7,1.8-7,2.7c-0.6,0.2-1.2,0.4-2,0.6
	c0.1-1.2,0.1-2.1,0.2-3.1c0.3-2.8,0.3-5.6-0.1-8.4c-0.5-3.7-2-6.8-5.2-9c-2.7-1.8-5.6-2.2-8.6-1.1c-2,0.7-4,1.7-5.9,2.5
	c-1.9,0.8-3.8,1.7-5.8,2.5c-4.7,1.8-9.4,1.4-14-0.5c-0.9-0.4-1.7-1-2.7-1.6c0.3-0.6,0.5-1.2,0.8-1.7c2.2-3.8,5.2-6.9,8.9-9.4
	c0,0,0.2-0.1,0.4-0.3v-1.9v-0.5h0c0-1,0-2.2,0-3.6c0-0.2,0-0.4,0-0.6c0,0,0,0,0-0.1c0-0.5,0-1.1,0-1.7c0-2.1,0-4.2,0-6
	c0-0.1,0-0.2,0-0.3c0-0.7,0-1.3,0-1.9c0-0.2,0-0.3,0-0.5c0-0.2,0-0.4,0-0.6c0,0,0,0,0,0c0-0.3,0-0.5,0-0.7c0-0.5,0-0.8,0-0.8V336.5
	v-34.9V71.9c0,0,0-0.3,0-0.8c0-0.2,0-0.4,0-0.7c0,0,0,0,0,0c0-0.2,0-0.4,0-0.6c0-0.1,0-0.3,0-0.5c0-0.6,0-1.2,0-1.9
	c0-0.1,0-0.2,0-0.3c0-0.9,0-1.9,0-2.9c0-1,0-2.1,0-3.1c0-0.6,0-1.1,0-1.7c0,0,0,0,0-0.1c0-0.2,0-0.4,0-0.6c0-1,0-1.9,0-2.8
	c0-0.3,0-0.5,0-0.8h0v-0.5v-1.9c-0.2-0.2-0.3-0.3-0.4-0.3c-3.7-2.4-6.6-5.6-8.9-9.4c-0.3-0.5-0.5-1-0.8-1.7c1-0.6,1.8-1.2,2.7-1.6
	c4.6-1.9,9.3-2.3,14-0.5c2,0.8,3.9,1.7,5.8,2.5c2,0.8,3.9,1.8,5.9,2.5c3,1.1,6,0.7,8.6-1.1c3.2-2.2,4.7-5.3,5.2-9
	c0.4-2.8,0.4-5.6,0.1-8.4c-0.1-0.9-0.1-1.9-0.2-3.1c0.8,0.2,1.4,0.4,2,0.6c2.3,0.9,4.7,1.8,7,2.7c5.9,2.4,11.9,4.3,18.3,4.7
	c2.6,0.2,5.2,0.3,7.8-0.3c1.2-0.3,2-0.2,2.8,0.8c0.2,0.2,0.4,0.4,0.6,0.6c4.7,4.2,10.2,6.3,16.5,5.9c7.3-0.4,13.5-3.3,18.1-9
	c2.1-2.6,3.5-5.7,4.4-9c0.1-0.2,0.1-0.5,0.1-0.7h635.2c0,0.2,0.1,0.5,0.1,0.7c0.9,3.3,2.3,6.3,4.4,9c4.7,5.7,10.8,8.6,18.1,9
	c6.3,0.4,11.8-1.8,16.5-5.9c0.2-0.2,0.4-0.3,0.6-0.6c0.7-0.9,1.6-1.1,2.8-0.8c2.6,0.6,5.2,0.4,7.8,0.3c6.4-0.4,12.4-2.3,18.3-4.7
	c2.3-0.9,4.7-1.8,7-2.7c0.6-0.2,1.2-0.4,2-0.6c-0.1,1.2-0.1,2.1-0.2,3.1c-0.3,2.8-0.3,5.6,0.1,8.4c0.5,3.7,2,6.8,5.2,9
	c2.7,1.8,5.6,2.2,8.6,1.1c2-0.7,4-1.7,5.9-2.5c1.9-0.8,3.8-1.7,5.8-2.5c4.7-1.8,9.4-1.4,14,0.5c0.9,0.4,1.7,1,2.7,1.6
	c-0.3,0.6-0.5,1.2-0.8,1.7c-2.2,3.8-5.2,6.9-8.9,9.4c-0.1,0.1-0.3,0.2-0.4,0.3v2c0,0,0,0,0,0c0,0,0,0,0,0v0.9h0
	c0,5.5-0.1,16.3-0.1,16.3v229.7v34.9v229.7c0,0,0,10.8,0.1,16.3h0v0.9c0,0,0,0,0,0c0,0,0,0,0,0v2c0.1,0.1,0.2,0.2,0.4,0.3
	c3.7,2.4,6.6,5.6,8.9,9.4c0.3,0.5,0.5,1.1,0.8,1.7c-1,0.6-1.8,1.2-2.7,1.6c-4.6,1.9-9.3,2.3-14,0.5c-2-0.8-3.9-1.7-5.8-2.5
	c-2-0.8-3.9-1.8-5.9-2.5c-3-1.1-6-0.8-8.6,1.1c-3.2,2.2-4.7,5.3-5.2,9C840.9,606.7,840.9,609.5,841.2,612.3z"/>
<path id="frame5f4638" class="st1" d="M890,572.5c-2.7-4.6-6.6-7.8-11.4-9.9c-0.8-0.4-1.6-0.7-2.4-0.9V336.5v-34.9V76.4
	c0.8-0.2,1.6-0.6,2.4-0.9c4.8-2.1,8.8-5.3,11.4-9.9c1.3-2.3,2-4.7,2.3-7.3c0.5-4.8,0-9.3-2.5-13.6c-0.6-0.9-1.2-1.8-1.9-2.7
	c-0.5-0.6-0.5-1-0.3-1.7c0.7-2.1,1.3-4.2,1.2-6.5c-0.2-5-2-9.3-5.6-12.9c-3.2-3.2-6.9-5.5-11.2-6.6c-5.6-1.4-11.2-1.4-16.7,0.2
	c-3,0.9-6,1.9-9.1,2.8c-0.5,0.1-0.9,0.3-1.5,0.4c-0.1-0.6-0.1-1.1-0.1-1.6c0-3.7-1.8-6.4-4.7-8.4c-3-2.1-6.5-2.6-10.1-2.1
	c-4.2,0.6-7.5,2.8-10.7,5.5c-4.9,4.3-8.9,9.4-13,14.3c-1.4,1.7-1.4,1.6-3.5,0.9c-2.8-1-5.3-2.6-7.3-4.7c-1.5-1.5-3.1-3-4.1-4.9
	c0-0.1-0.1-0.1-0.2-0.2h-2.5c0,0,0,0,0,0h-682H104h-2.5c-0.1,0.1-0.1,0.1-0.2,0.2c-1.1,1.9-2.6,3.4-4.1,4.9
	c-2.1,2.1-4.6,3.7-7.3,4.7c-2.1,0.8-2.1,0.8-3.5-0.9c-4.1-5-8.1-10-13-14.3c-3.1-2.8-6.5-4.9-10.7-5.5c-3.6-0.5-7.1,0-10.1,2.1
	c-2.9,2-4.7,4.7-4.7,8.4c0,0.5-0.1,1-0.1,1.6c-0.6-0.2-1.1-0.3-1.5-0.4c-3-0.9-6-1.9-9.1-2.8c-5.5-1.6-11.1-1.6-16.7-0.2
	c-4.4,1.1-8,3.4-11.2,6.6c-3.6,3.6-5.4,7.9-5.6,12.9c-0.1,2.2,0.5,4.4,1.2,6.5C5.1,41,5,41.4,4.5,42c-0.7,0.8-1.3,1.8-1.9,2.7
	c-2.5,4.2-3,8.8-2.5,13.6c0.3,2.6,1,5,2.3,7.3c2.7,4.6,6.6,7.8,11.4,9.9c0.8,0.4,1.6,0.7,2.4,0.9v225.2v34.9v225.2
	c-0.8,0.2-1.6,0.6-2.4,0.9c-4.8,2.1-8.8,5.3-11.4,9.9c-1.3,2.3-2,4.7-2.3,7.3c-0.5,4.8,0,9.3,2.5,13.6c0.6,0.9,1.2,1.8,1.9,2.7
	c0.5,0.6,0.5,1,0.3,1.7c-0.7,2.1-1.3,4.2-1.2,6.5c0.2,5,2,9.3,5.6,12.9c3.2,3.2,6.9,5.5,11.2,6.6c5.6,1.4,11.2,1.4,16.7-0.2
	c3-0.9,6-1.9,9.1-2.8c0.5-0.1,0.9-0.3,1.5-0.4c0.1,0.6,0.1,1.1,0.1,1.6c0,3.7,1.8,6.4,4.7,8.4c3,2.1,6.5,2.6,10.1,2.1
	c4.2-0.6,7.6-2.8,10.7-5.5c4.9-4.3,8.9-9.4,13-14.3c1.4-1.7,1.4-1.6,3.5-0.9c2.8,1,5.3,2.6,7.3,4.7c1.5,1.5,3.1,3,4.1,4.9
	c0,0.1,0.1,0.1,0.2,0.2h2.5h2.5h682c0,0,0,0,0,0h2.5c0.1-0.1,0.1-0.1,0.2-0.2c1.1-1.9,2.6-3.4,4.1-4.9c2.1-2.1,4.6-3.7,7.3-4.7
	c2.1-0.8,2.1-0.8,3.5,0.9c4.1,5,8.1,10,13,14.3c3.1,2.8,6.5,4.9,10.7,5.5c3.6,0.5,7.1,0,10.1-2.1c2.9-2,4.7-4.7,4.7-8.4
	c0-0.5,0.1-1,0.1-1.6c0.6,0.2,1.1,0.3,1.5,0.4c3,0.9,6,1.9,9.1,2.8c5.5,1.6,11.1,1.6,16.7,0.2c4.4-1.1,8-3.4,11.2-6.6
	c3.6-3.6,5.4-7.9,5.6-12.9c0.1-2.2-0.5-4.4-1.2-6.5c-0.2-0.7-0.2-1.2,0.3-1.7c0.7-0.8,1.3-1.8,1.9-2.7c2.5-4.2,3-8.8,2.5-13.6
	C891.9,577.3,891.3,574.8,890,572.5z M888,47.6c1,3.4,0.9,6.8-0.4,10h0c-1.8,4.7-5.3,7.7-10.3,8.8c-0.4,0.1-0.8,0.1-1.1,0.2V53.5
	c1.5-0.9,2.9-2,4.2-3.2c2-1.8,3.8-4,5.7-6C887.1,45.1,887.6,46.3,888,47.6z M844.3,23.1c0-1.3,0-1.3,1.3-1.7c4.9-1.3,9.9-2.3,15-2.6
	c2.2-0.1,4.4-0.1,6.6,0.2c3,0.3,5.7,1.6,8.3,3.1c3.9,2.2,6.6,5.4,8.2,9.6c0.9,2.3,1.1,4.6,0.6,7.2c-0.5-0.2-0.9-0.5-1.3-0.6
	c-1.6-0.7-3.1-1.5-4.8-2c-3.4-1-6.9-0.9-10.3,0.1c-2.8,0.8-5.6,1.7-8.4,2.4c-1.8,0.5-3.7,0.9-5.6,1.1c-2.9,0.2-5.4-0.7-7.2-3.2
	c-0.9-1.3-1.6-2.8-1.9-4.4C844.2,29.2,844.2,26.1,844.3,23.1z M810.8,23.6c3.1-3.7,6.4-7,10.5-9.5h0c4-2.4,8.1-3.8,12.9-3.3
	c4.4,0.4,7.2,4.5,6.9,8.3c-0.2,0.1-0.4,0.2-0.6,0.3c-3.6,1.6-7.2,3.3-10.9,4.9c-6.8,2.9-13.9,3.7-21.2,3.3c-0.3,0-0.5-0.2-0.9-0.3
	C808.7,26,809.8,24.8,810.8,23.6z M789.3,19.1c1.4,2.8,3.4,5.1,6,6.9c1.5,1,3.2,1.8,4.8,2.7c0.4,0.2,0.9,0.4,1.6,0.7
	c-1.3,0.9-2.8,1.8-4.3,2.5c-8.1,3.9-18.4,1.7-24.1-5.3c-1.8-2.2-3.1-4.7-3.7-7.5L789.3,19.1z M92.3,28.7c1.6-0.9,3.3-1.7,4.8-2.7
	c2.6-1.8,4.7-4.1,6-6.9h19.7c-0.6,2.8-1.9,5.3-3.7,7.6c-5.7,7-16,9.2-24.1,5.3c-1.5-0.7-2.9-1.5-4.3-2.5
	C91.4,29.1,91.9,29,92.3,28.7z M58.2,10.7c4.8-0.5,8.9,1,12.9,3.3v0c4.2,2.5,7.5,5.8,10.5,9.5c1,1.2,2.1,2.4,3.2,3.8
	c-0.4,0.1-0.7,0.3-0.9,0.3c-7.3,0.4-14.4-0.4-21.2-3.3c-3.6-1.6-7.2-3.3-10.9-4.9c-0.2-0.1-0.4-0.2-0.6-0.3
	C51,15.2,53.8,11.2,58.2,10.7z M8.8,31.7c1.6-4.2,4.3-7.4,8.2-9.6c2.6-1.5,5.3-2.8,8.3-3.1c2.2-0.3,4.4-0.3,6.6-0.1
	c5.1,0.2,10.1,1.2,15,2.6c1.3,0.3,1.3,0.4,1.3,1.7c0.1,3.1,0,6.1-0.5,9.2c-0.3,1.6-0.9,3.1-1.9,4.4c-1.8,2.4-4.3,3.4-7.2,3.2
	c-1.9-0.2-3.8-0.6-5.6-1.1c-2.8-0.7-5.6-1.6-8.4-2.4c-3.4-1-6.9-1.1-10.3-0.1c-1.7,0.5-3.2,1.3-4.8,2c-0.4,0.2-0.8,0.4-1.3,0.6
	C7.6,36.3,7.9,34,8.8,31.7z M15.2,66.5c-5-1.1-8.5-4.2-10.3-8.8h0c-1.3-3.2-1.4-6.6-0.4-10c0.4-1.3,0.9-2.6,1.9-3.4
	c1.9,2,3.7,4.2,5.7,6c1.3,1.2,2.7,2.3,4.2,3.2v13.2C16,66.6,15.6,66.6,15.2,66.5z M4.5,590.4c-1-3.4-0.9-6.8,0.4-10h0
	c1.9-4.7,5.3-7.7,10.3-8.8c0.4-0.1,0.8-0.1,1.1-0.2v13.2c-1.5,0.9-2.9,2-4.2,3.2c-2,1.8-3.8,4-5.7,6C5.4,593,4.8,591.8,4.5,590.4z
	 M48.2,615c0,1.3,0,1.3-1.3,1.7c-4.9,1.3-9.9,2.3-15,2.6c-2.2,0.1-4.4,0.1-6.6-0.1c-3-0.3-5.7-1.6-8.3-3.1c-3.9-2.2-6.6-5.4-8.2-9.6
	c-0.9-2.3-1.1-4.6-0.6-7.2c0.5,0.2,0.9,0.5,1.3,0.6c1.6,0.7,3.1,1.5,4.8,2c3.4,1,6.9,0.9,10.3-0.1c2.8-0.8,5.6-1.7,8.4-2.4
	c1.9-0.5,3.7-0.9,5.6-1.1c2.9-0.2,5.4,0.7,7.2,3.2c0.9,1.3,1.6,2.8,1.9,4.4C48.2,608.9,48.2,611.9,48.2,615z M81.6,614.5
	c-3.1,3.7-6.4,7-10.5,9.5v0c-4,2.4-8.1,3.8-12.9,3.3c-4.4-0.4-7.2-4.5-6.9-8.3c0.2-0.1,0.4-0.2,0.6-0.3c3.6-1.7,7.2-3.4,10.9-4.9
	c6.8-2.9,13.9-3.7,21.2-3.3c0.3,0,0.5,0.2,0.9,0.3C83.7,612.1,82.7,613.3,81.6,614.5z M103.1,619c-1.4-2.8-3.4-5.1-6-6.9
	c-1.5-1-3.2-1.8-4.8-2.7c-0.4-0.2-0.9-0.4-1.6-0.7c1.3-0.9,2.8-1.8,4.3-2.5c8.1-3.9,18.4-1.7,24.1,5.3c1.8,2.2,3.1,4.7,3.7,7.6
	H103.1z M800.1,609.4c-1.6,0.9-3.3,1.7-4.8,2.7c-2.6,1.8-4.7,4.1-6,6.9l-19.7,0c0.6-2.8,1.9-5.3,3.7-7.5c5.7-7,16-9.2,24.1-5.3
	c1.5,0.7,2.9,1.5,4.3,2.5C801,608.9,800.5,609.1,800.1,609.4z M834.2,627.4c-4.8,0.5-8.9-0.9-12.9-3.3h0c-4.2-2.5-7.5-5.8-10.5-9.5
	c-1-1.2-2.1-2.4-3.2-3.8c0.4-0.1,0.7-0.3,0.9-0.3c7.3-0.4,14.4,0.4,21.2,3.3c3.6,1.6,7.2,3.3,10.9,4.9c0.2,0.1,0.4,0.2,0.6,0.3
	C841.4,622.9,838.6,626.9,834.2,627.4z M841.2,612.3c0.1,0.9,0.1,1.9,0.2,3.1c-0.8-0.2-1.4-0.4-2-0.6c-2.3-0.9-4.7-1.8-7-2.7
	c-5.9-2.4-11.9-4.3-18.3-4.7c-2.6-0.2-5.2-0.3-7.8,0.3c-1.2,0.3-2,0.2-2.8-0.8c-0.2-0.2-0.4-0.4-0.6-0.6c-4.7-4.2-10.2-6.3-16.5-5.9
	c-7.3,0.4-13.5,3.3-18.1,9c-2.1,2.6-3.5,5.7-4.4,9c-0.1,0.2-0.1,0.5-0.1,0.7H128.6c0-0.2-0.1-0.5-0.1-0.7c-0.9-3.3-2.3-6.3-4.4-9
	c-4.6-5.7-10.8-8.6-18.1-9c-6.3-0.4-11.8,1.8-16.5,5.9c-0.2,0.2-0.4,0.3-0.6,0.6c-0.7,0.9-1.6,1.1-2.8,0.8c-2.6-0.6-5.2-0.4-7.8-0.3
	c-6.4,0.4-12.4,2.3-18.3,4.7c-2.3,1-4.7,1.8-7,2.7c-0.6,0.2-1.2,0.4-2,0.6c0.1-1.2,0.1-2.1,0.2-3.1c0.3-2.8,0.3-5.6-0.1-8.4
	c-0.5-3.7-2-6.8-5.2-9c-2.7-1.8-5.6-2.2-8.6-1.1c-2,0.7-4,1.7-5.9,2.5c-1.9,0.8-3.8,1.7-5.8,2.5c-4.7,1.8-9.4,1.4-14-0.5
	c-0.9-0.4-1.7-1-2.7-1.6c0.3-0.6,0.5-1.2,0.8-1.7c2.2-3.8,5.2-6.9,8.9-9.4c0,0,0.2-0.1,0.4-0.3v-1.9v-0.5h0c0-1,0-2.2,0-3.6
	c0-0.2,0-0.4,0-0.6c0,0,0,0,0-0.1c0-0.5,0-1.1,0-1.7c0-2.1,0-4.2,0-6c0-0.1,0-0.2,0-0.3c0-0.7,0-1.3,0-1.9c0-0.2,0-0.3,0-0.5
	c0-0.2,0-0.4,0-0.6c0,0,0,0,0,0c0-0.3,0-0.5,0-0.7c0-0.5,0-0.8,0-0.8V336.5v-34.9V71.9c0,0,0-0.3,0-0.8c0-0.2,0-0.4,0-0.7
	c0,0,0,0,0,0c0-0.2,0-0.4,0-0.6c0-0.1,0-0.3,0-0.5c0-0.6,0-1.2,0-1.9c0-0.1,0-0.2,0-0.3c0-0.9,0-1.9,0-2.9c0-1,0-2.1,0-3.1
	c0-0.6,0-1.1,0-1.7c0,0,0,0,0-0.1c0-0.2,0-0.4,0-0.6c0-1,0-1.9,0-2.8c0-0.3,0-0.5,0-0.8h0v-0.5v-1.9c-0.2-0.2-0.3-0.3-0.4-0.3
	c-3.7-2.4-6.6-5.6-8.9-9.4c-0.3-0.5-0.5-1-0.8-1.7c1-0.6,1.8-1.2,2.7-1.6c4.6-1.9,9.3-2.3,14-0.5c2,0.8,3.9,1.7,5.8,2.5
	c2,0.8,3.9,1.8,5.9,2.5c3,1.1,6,0.7,8.6-1.1c3.2-2.2,4.7-5.3,5.2-9c0.4-2.8,0.4-5.6,0.1-8.4c-0.1-0.9-0.1-1.9-0.2-3.1
	c0.8,0.2,1.4,0.4,2,0.6c2.3,0.9,4.7,1.8,7,2.7c5.9,2.4,11.9,4.3,18.3,4.7c2.6,0.2,5.2,0.3,7.8-0.3c1.2-0.3,2-0.2,2.8,0.8
	c0.2,0.2,0.4,0.4,0.6,0.6c4.7,4.2,10.2,6.3,16.5,5.9c7.3-0.4,13.5-3.3,18.1-9c2.1-2.6,3.5-5.7,4.4-9c0.1-0.2,0.1-0.5,0.1-0.7h635.2
	c0,0.2,0.1,0.5,0.1,0.7c0.9,3.3,2.3,6.3,4.4,9c4.7,5.7,10.8,8.6,18.1,9c6.3,0.4,11.8-1.8,16.5-5.9c0.2-0.2,0.4-0.3,0.6-0.6
	c0.7-0.9,1.6-1.1,2.8-0.8c2.6,0.6,5.2,0.4,7.8,0.3c6.4-0.4,12.4-2.3,18.3-4.7c2.3-0.9,4.7-1.8,7-2.7c0.6-0.2,1.2-0.4,2-0.6
	c-0.1,1.2-0.1,2.1-0.2,3.1c-0.3,2.8-0.3,5.6,0.1,8.4c0.5,3.7,2,6.8,5.2,9c2.7,1.8,5.6,2.2,8.6,1.1c2-0.7,4-1.7,5.9-2.5
	c1.9-0.8,3.8-1.7,5.8-2.5c4.7-1.8,9.4-1.4,14,0.5c0.9,0.4,1.7,1,2.7,1.6c-0.3,0.6-0.5,1.2-0.8,1.7c-2.2,3.8-5.2,6.9-8.9,9.4
	c-0.1,0.1-0.3,0.2-0.4,0.3v2c0,0,0,0,0,0c0,0,0,0,0,0v0.9h0c0,5.5-0.1,16.3-0.1,16.3v229.7v34.9v229.7c0,0,0,10.8,0.1,16.3h0v0.9
	c0,0,0,0,0,0c0,0,0,0,0,0v2c0.1,0.1,0.2,0.2,0.4,0.3c3.7,2.4,6.6,5.6,8.9,9.4c0.3,0.5,0.5,1.1,0.8,1.7c-1,0.6-1.8,1.2-2.7,1.6
	c-4.6,1.9-9.3,2.3-14,0.5c-2-0.8-3.9-1.7-5.8-2.5c-2-0.8-3.9-1.8-5.9-2.5c-3-1.1-6-0.8-8.6,1.1c-3.2,2.2-4.7,5.3-5.2,9
	C840.9,606.7,840.9,609.5,841.2,612.3z M883.7,606.4c-1.6,4.2-4.3,7.4-8.2,9.6c-2.6,1.5-5.3,2.8-8.3,3.1c-2.2,0.3-4.4,0.3-6.6,0.2
	c-5.1-0.2-10.1-1.2-15-2.6c-1.3-0.3-1.3-0.4-1.3-1.7c-0.1-3.1,0-6.1,0.5-9.2c0.3-1.6,0.9-3.1,1.9-4.4c1.8-2.4,4.3-3.4,7.2-3.2
	c1.9,0.2,3.8,0.6,5.6,1.1c2.8,0.7,5.6,1.6,8.4,2.4c3.4,1,6.9,1.1,10.3,0.1c1.7-0.5,3.2-1.3,4.8-2c0.4-0.2,0.8-0.4,1.3-0.6
	C884.8,601.8,884.5,604.1,883.7,606.4z M888,590.4c-0.4,1.3-0.9,2.6-1.9,3.4c-1.9-2-3.7-4.2-5.7-6c-1.3-1.2-2.7-2.3-4.2-3.2v-13.2
	c0.4,0.1,0.8,0.1,1.1,0.2c5,1.1,8.5,4.2,10.3,8.8h0C888.8,583.6,888.9,587.1,888,590.4z"/>
</svg>
