<svg xmlns="http://www.w3.org/2000/svg" xmlns:xlink="http://www.w3.org/1999/xlink" width="792" height="20" viewBox="0 0 792 20"><defs><path id="2e2oa" d="M1109.59 262.16c4.941 2.26 7.41 4.399 7.41 6.423a2.737 2.737 0 0 1-.122.389c-2.362 1.647-5.524 3.387-9.488 5.223-4.667 2.188-8.062 3.282-10.18 3.282-1.356 0-2.809-.237-4.356-.706-.679-.212-1.303-.318-1.873-.318-1.655 0-3.339.199-5.048.6-1.711.4-3.367.6-4.969.6-1.004 0-2.524-.1-4.56-.3-1.706-.168-3.019-.261-3.98-.288v.019c-3.612.611-6.177.916-7.696.916-1.114 0-2.75-.199-4.908-.599-2.158-.4-3.793-.6-4.906-.6-.597 0-1.486.13-2.667.389-1.181.258-2.07.388-2.667.388-.842 0-2.097-.153-3.767-.46-1.668-.305-2.925-.458-3.765-.458-.517 0-1.27.088-2.26.264-.992.177-1.747.266-2.26.266-.815 0-2.044-.072-3.686-.213-1.642-.14-2.87-.211-3.685-.211-.19 0-.475.076-.855.23-.38.152-.652.229-.814.229a.304.304 0 0 1-.238-.099c-3.47.581-5.952.874-7.432.874-1.113 0-2.749-.199-4.907-.599-2.158-.4-3.794-.6-4.907-.6-.598 0-1.486.13-2.667.389-1.18.258-2.07.388-2.667.388-.841 0-2.097-.153-3.768-.46-1.668-.305-2.924-.458-3.765-.458-.517 0-1.27.088-2.26.264-.99.177-1.745.266-2.26.266-.815 0-2.043-.072-3.686-.213-1.642-.14-2.87-.211-3.685-.211-.188 0-.473.076-.855.23-.38.152-.65.229-.813.229-.099 0-.17-.034-.224-.084-3.422.57-5.876.859-7.344.859-1.114 0-2.75-.199-4.908-.599-2.157-.4-3.794-.6-4.907-.6-.597 0-1.486.13-2.667.389-1.18.258-2.07.388-2.667.388-.841 0-2.095-.153-3.766-.46-1.668-.305-2.925-.458-3.765-.458-.517 0-1.27.088-2.26.264-.992.177-1.747.266-2.26.266-.816 0-2.044-.072-3.686-.213-1.643-.14-2.87-.211-3.685-.211-.19 0-.475.076-.856.23-.38.152-.65.229-.814.229a.306.306 0 0 1-.237-.099c-3.468.581-5.952.874-7.433.874-1.113 0-2.748-.199-4.906-.599-2.159-.4-3.794-.6-4.907-.6-.599 0-1.486.13-2.667.389-1.18.258-2.071.388-2.667.388-.842 0-2.097-.153-3.767-.46-1.67-.305-2.926-.458-3.766-.458-.517 0-1.27.088-2.26.264-.99.177-1.745.266-2.26.266-.816 0-2.044-.072-3.686-.213-1.643-.14-2.87-.211-3.685-.211-.189 0-.474.076-.855.23-.38.152-.65.229-.813.229a.304.304 0 0 1-.255-.113c-3.516.592-6.028.888-7.523.888-1.113 0-2.748-.199-4.906-.599-2.158-.4-3.794-.6-4.907-.6-.598 0-1.486.13-2.667.389-1.18.258-2.07.388-2.667.388-.841 0-2.097-.153-3.766-.46-1.67-.305-2.925-.458-3.767-.458-.516 0-1.269.088-2.26.264-.99.177-1.745.266-2.26.266-.814 0-2.044-.072-3.685-.213-1.642-.14-2.87-.211-3.685-.211-.19 0-.475.076-.855.23-.38.152-.651.229-.814.229a.31.31 0 0 1-.239-.099c-3.466.581-5.95.874-7.431.874-1.114 0-2.75-.199-4.907-.599-2.158-.4-3.793-.6-4.907-.6-.598 0-1.485.13-2.668.389-1.18.258-2.07.388-2.665.388-.842 0-2.097-.153-3.768-.46-1.668-.305-2.925-.458-3.765-.458-.517 0-1.27.088-2.26.264-.992.177-1.746.266-2.26.266-.816 0-2.044-.072-3.686-.213-1.643-.14-2.87-.211-3.685-.211-.19 0-.475.076-.855.23-.38.152-.65.229-.813.229a.317.317 0 0 1-.224-.084c-3.422.57-5.877.859-7.345.859-1.113 0-2.748-.199-4.906-.599-2.158-.4-3.794-.6-4.907-.6-.597 0-1.486.13-2.667.389-1.18.258-2.07.388-2.667.388-.841 0-2.097-.153-3.766-.46-1.67-.305-2.925-.458-3.767-.458-.516 0-1.269.088-2.26.264-.99.177-1.745.266-2.26.266-.814 0-2.042-.072-3.685-.213-1.642-.14-2.87-.211-3.685-.211-.19 0-.475.076-.855.23-.38.152-.651.229-.814.229a.312.312 0 0 1-.24-.099c-3.467.581-5.95.874-7.431.874-1.113 0-2.75-.199-4.907-.599-2.158-.4-3.794-.6-4.908-.6-.597 0-1.485.13-2.666.389-1.182.258-2.07.388-2.667.388-.841 0-2.097-.153-3.768-.46-1.668-.305-2.924-.458-3.765-.458-.517 0-1.27.088-2.26.264-.992.177-1.745.266-2.26.266-.815 0-2.043-.072-3.686-.213-1.642-.14-2.869-.211-3.685-.211-.188 0-.473.076-.855.23-.38.152-.65.229-.813.229-.12 0-.2-.044-.258-.115-3.522.592-6.038.89-7.534.89-1.113 0-2.749-.199-4.907-.599-2.158-.4-3.793-.6-4.906-.6-.597 0-1.486.13-2.667.389-1.181.258-2.07.388-2.667.388-.842 0-2.097-.153-3.767-.46-1.67-.305-2.925-.458-3.766-.458-.516 0-1.27.088-2.26.264-.99.177-1.746.266-2.26.266-.814 0-2.043-.072-3.685-.213-1.642-.14-2.87-.211-3.685-.211-.19 0-.475.076-.855.23-.38.152-.652.229-.814.229a.307.307 0 0 1-.24-.099c-3.467.581-5.951.874-7.432.874-1.113 0-2.748-.199-4.906-.599-2.158-.4-3.794-.6-4.908-.6-.598 0-1.485.13-2.666.389-1.182.258-2.071.388-2.667.388-.842 0-2.097-.153-3.768-.46-1.668-.305-2.925-.458-3.765-.458-.517 0-1.27.088-2.26.264-.992.177-1.745.266-2.26.266-.815 0-2.044-.072-3.686-.213-1.642-.14-2.87-.211-3.685-.211-.189 0-.474.076-.855.23-.38.152-.65.229-.813.229a.314.314 0 0 1-.223-.084c-3.422.57-5.876.859-7.344.859-1.114 0-2.75-.199-4.908-.599-2.158-.4-3.794-.6-4.907-.6-.597 0-1.486.13-2.667.389-1.18.258-2.07.388-2.667.388-.841 0-2.097-.153-3.766-.46-1.67-.305-2.925-.458-3.765-.458-.517 0-1.27.088-2.26.264-.992.177-1.747.266-2.261.266-.815 0-2.043-.072-3.685-.213-1.643-.14-2.871-.211-3.685-.211-.19 0-.475.076-.856.23-.38.152-.651.229-.814.229a.304.304 0 0 1-.237-.099c-3.47.581-5.952.874-7.433.874-1.113 0-2.748-.199-4.906-.599-2.159-.4-3.794-.6-4.908-.6-.598 0-1.485.13-2.666.389-1.18.258-2.071.388-2.667.388-.842 0-2.097-.153-3.768-.46-1.668-.305-2.925-.458-3.765-.458-.517 0-1.27.088-2.26.264-.992.177-1.745.266-2.26.266-.816 0-2.044-.072-3.686-.213-1.643-.14-2.87-.211-3.685-.211-.189 0-.474.076-.855.23-.38.152-.65.229-.813.229a.304.304 0 0 1-.256-.113c-3.516.592-6.027.888-7.522.888-1.113 0-2.748-.199-4.906-.599-2.158-.4-3.794-.6-4.907-.6-.598 0-1.486.13-2.667.389-1.18.258-2.07.388-2.667.388-.841 0-2.097-.153-3.766-.46-1.67-.305-2.927-.458-3.767-.458-.517 0-1.269.088-2.26.264-.99.177-1.745.266-2.26.266-.814 0-2.044-.072-3.686-.213-1.642-.14-2.87-.211-3.684-.211-.19 0-.475.076-.855.23-.381.152-.651.229-.814.229a.307.307 0 0 1-.239-.099c-3.468.581-5.95.874-7.431.874-1.114 0-2.75-.199-4.908-.599-2.157-.4-3.792-.6-4.907-.6-.597 0-1.484.13-2.667.389-1.18.258-2.07.388-2.665.388-.843 0-2.097-.153-3.768-.46-1.668-.305-2.925-.458-3.765-.458-.517 0-1.27.088-2.26.264-.992.177-1.746.266-2.26.266-.816 0-2.044-.072-3.686-.213-1.643-.14-2.87-.211-3.685-.211-.19 0-.475.076-.855.23-.38.152-.65.229-.813.229a.32.32 0 0 1-.226-.084c-3.42.57-5.875.859-7.343.859-1.113 0-2.748-.199-4.906-.599-2.158-.4-3.794-.6-4.907-.6-.598 0-1.486.13-2.667.389-1.18.258-2.07.388-2.667.388-.841 0-2.097-.153-3.766-.46-1.67-.305-2.927-.458-3.767-.458-.517 0-1.269.088-2.26.264-.99.177-1.745.266-2.26.266-.814 0-2.044-.072-3.686-.213-1.642-.14-2.87-.211-3.684-.211-.19 0-.475.076-.855.23-.381.152-.651.229-.814.229a.312.312 0 0 1-.24-.099c-3.467.581-5.95.874-7.431.874-1.115 0-2.75-.199-4.907-.599-2.158-.4-3.794-.6-4.908-.6-.597 0-1.485.13-2.667.389-1.18.258-2.07.388-2.666.388-.841 0-2.097-.153-3.768-.46-1.668-.305-2.924-.458-3.765-.458-.517 0-1.27.088-2.26.264-.992.177-1.745.266-2.26.266-.815 0-2.043-.072-3.686-.213-1.642-.14-2.87-.211-3.685-.211-.19 0-.475.076-.855.23-.38.152-.65.229-.813.229-.04 0-.065-.013-.098-.02-.556.041-1.271.063-2.18.063-2.444 0-5.253-.153-8.43-.458-2.66-.26-4.628-.553-5.905-.883-2.903.87-5.7 1.306-8.387 1.306-.707 0-1.303-.047-1.793-.141-3.447-.753-7.017-1.953-10.707-3.6-4.942-2.258-7.411-4.4-7.411-6.422.026-.118.068-.248.122-.389 2.362-1.647 5.524-3.388 9.488-5.223 4.667-2.188 8.062-3.282 10.18-3.282 1.356 0 2.809.236 4.356.706.679.212 1.303.318 1.873.318 1.655 0 3.339-.2 5.048-.6 1.711-.4 3.367-.6 4.969-.6 1.004 0 2.524.1 4.56.3 1.705.167 3.016.26 3.979.288.002-.036.005-.067.009-.102h.205c1.22.023 2.985-.037 5.292-.177 2.443-.14 4.208-.211 5.295-.211.27 0 .657.07 1.159.211.502.14.889.21 1.162.21.378.026 1.043.084 1.994.179.868.069 1.547.105 2.035.105.136 0 .292.065.469.195.176.129.319.194.427.194.245 0 .577-.065 1-.194.419-.13.738-.195.956-.195 1.003 0 2.476.077 4.418.229 1.94.154 3.4.23 4.376.23.76 0 1.866-.188 3.32-.564 1.45-.377 2.557-.565 3.317-.565 1.603 0 4.547.106 8.837.316v.037c1.214.016 2.921-.041 5.147-.177 2.442-.14 4.206-.211 5.294-.211.27 0 .656.07 1.16.211.502.14.89.21 1.16.21.38.026 1.046.084 1.996.179.867.069 1.546.105 2.036.105.134 0 .291.065.467.195.176.129.32.194.428.194.245 0 .577-.065.998-.194.42-.13.738-.195.957-.195 1.004 0 2.477.077 4.418.229 1.94.154 3.4.23 4.377.23.759 0 1.866-.188 3.319-.564 1.45-.377 2.558-.565 3.317-.565 1.603 0 4.547.106 8.837.316v.037c1.208.012 2.876-.045 5.042-.177 2.444-.14 4.208-.211 5.294-.211.271 0 .658.07 1.16.211.503.14.89.21 1.16.21.38.026 1.046.084 1.996.179.869.069 1.547.105 2.036.105.136 0 .292.065.468.195.177.129.32.194.428.194.244 0 .577-.065.999-.194.42-.13.738-.195.957-.195 1.003 0 2.475.077 4.418.229 1.94.154 3.4.23 4.375.23.76 0 1.867-.188 3.32-.564 1.451-.377 2.557-.565 3.318-.565 1.602 0 4.545.106 8.837.316v.037c1.213.016 2.92-.041 5.145-.177 2.442-.14 4.206-.211 5.294-.211.27 0 .657.07 1.16.211.502.14.89.21 1.16.21.38.026 1.046.084 1.996.179.867.069 1.546.105 2.036.105.134 0 .292.065.467.195.176.129.32.194.429.194.244 0 .576-.065.997-.194.42-.13.738-.195.957-.195 1.004 0 2.477.077 4.418.229 1.94.154 3.4.23 4.377.23.759 0 1.866-.188 3.319-.564 1.45-.377 2.558-.565 3.317-.565 1.603 0 4.547.106 8.837.316v.037c1.22.021 2.969-.038 5.252-.177 2.443-.14 4.207-.211 5.294-.211.27 0 .657.07 1.16.211.502.14.888.21 1.161.21.379.026 1.044.084 1.994.179.869.069 1.547.105 2.036.105.136 0 .292.065.468.195.177.129.32.194.43.194.242 0 .575-.065.997-.194.42-.13.738-.195.957-.195 1.003 0 2.475.077 4.418.229 1.94.154 3.4.23 4.376.23.76 0 1.866-.188 3.32-.564 1.45-.377 2.558-.565 3.317-.565 1.603 0 4.547.106 8.837.316v.037c1.213.016 2.92-.041 5.145-.177 2.443-.14 4.208-.211 5.294-.211.271 0 .658.07 1.16.211.502.14.89.21 1.16.21.38.026 1.046.084 1.996.179.869.069 1.547.105 2.036.105.136 0 .292.065.468.195.177.129.32.194.428.194.244 0 .576-.065.997-.194.421-.13.739-.195.958-.195 1.004 0 2.476.077 4.417.229 1.941.154 3.4.23 4.377.23.76 0 1.867-.188 3.319-.564 1.452-.377 2.558-.565 3.318-.565 1.602 0 4.546.106 8.836.316v.037c1.21.012 2.88-.045 5.043-.177 2.443-.14 4.207-.211 5.294-.211.27 0 .657.07 1.16.211.502.14.889.21 1.161.21.379.026 1.044.084 1.994.179.869.069 1.547.105 2.036.105.136 0 .292.065.468.195.177.129.32.194.43.194.242 0 .575-.065.997-.194.42-.13.738-.195.957-.195 1.003 0 2.475.077 4.418.229 1.94.154 3.4.23 4.376.23.76 0 1.866-.188 3.32-.564 1.45-.377 2.558-.565 3.317-.565 1.603 0 4.547.106 8.837.316v.037c1.215.016 2.922-.041 5.147-.177 2.443-.14 4.206-.211 5.293-.211.27 0 .658.07 1.16.211.503.14.89.21 1.161.21a69.1 69.1 0 0 1 1.995.179c.869.069 1.548.105 2.036.105.136 0 .292.065.469.195.176.129.318.194.427.194.244 0 .577-.065.998-.194.42-.13.738-.195.957-.195 1.004 0 2.477.077 4.418.229 1.94.154 3.4.23 4.377.23.76 0 1.866-.188 3.318-.564 1.453-.377 2.559-.565 3.319-.565 1.601 0 4.545.106 8.836.316v.037c1.22.022 2.974-.038 5.266-.177 2.443-.14 4.208-.211 5.295-.211.27 0 .657.07 1.159.211.502.14.889.21 1.162.21.378.026 1.043.084 1.994.179.868.069 1.547.105 2.036.105.135 0 .291.065.468.195.176.129.319.194.427.194.245 0 .577-.065 1-.194.419-.13.738-.195.956-.195 1.003 0 2.476.077 4.418.229 1.94.154 3.4.23 4.376.23.76 0 1.866-.188 3.32-.564 1.45-.377 2.557-.565 3.317-.565 1.603 0 4.547.106 8.837.316v.037c1.214.016 2.921-.041 5.147-.177 2.443-.14 4.206-.211 5.294-.211.27 0 .658.07 1.16.211.502.14.89.21 1.16.21a69.1 69.1 0 0 1 1.996.179c.868.069 1.547.105 2.036.105.134 0 .291.065.468.195.175.129.319.194.427.194.245 0 .577-.065.998-.194.42-.13.738-.195.957-.195 1.004 0 2.477.077 4.418.229 1.94.154 3.4.23 4.377.23.76 0 1.866-.188 3.319-.564 1.452-.377 2.558-.565 3.318-.565 1.602 0 4.546.106 8.836.316v.037c1.21.012 2.876-.045 5.042-.177 2.444-.14 4.208-.211 5.295-.211.27 0 .657.07 1.16.211.502.14.888.21 1.161.21.379.026 1.044.084 1.994.179.869.069 1.547.105 2.036.105.136 0 .292.065.468.195.177.129.32.194.428.194.244 0 .577-.065.999-.194.42-.13.738-.195.957-.195 1.003 0 2.475.077 4.418.229 1.94.154 3.4.23 4.375.23.76 0 1.867-.188 3.32-.564 1.451-.377 2.557-.565 3.318-.565 1.602 0 4.546.106 8.837.316v.037c1.213.016 2.92-.041 5.145-.177 2.443-.14 4.206-.211 5.294-.211.27 0 .658.07 1.16.211.502.14.89.21 1.16.21.38.026 1.046.084 1.996.179.867.069 1.546.105 2.036.105.134 0 .292.065.468.195.175.129.319.194.428.194.244 0 .576-.065.997-.194.42-.13.739-.195.957-.195 1.004 0 2.477.077 4.418.229 1.94.154 3.4.23 4.377.23.759 0 1.866-.188 3.319-.564 1.452-.377 2.558-.565 3.318-.565 1.602 0 4.546.106 8.836.316v.037c1.22.021 2.969-.038 5.252-.177 2.443-.14 4.207-.211 5.294-.211.27 0 .657.07 1.16.211.502.14.89.21 1.161.21.379.026 1.044.084 1.995.179.868.069 1.546.105 2.036.105.135 0 .29.065.467.195.177.129.32.194.43.194.242 0 .575-.065.997-.194.42-.13.738-.195.957-.195 1.003 0 2.475.077 4.418.229 1.94.154 3.4.23 4.377.23.759 0 1.866-.188 3.318-.564 1.451-.377 2.559-.565 3.318-.565 1.603 0 4.547.106 8.837.316v.037c1.215.016 2.92-.041 5.145-.177 2.443-.14 4.208-.211 5.294-.211.271 0 .658.07 1.16.211.502.14.89.21 1.16.21.38.026 1.046.084 1.996.179.869.069 1.547.105 2.036.105.136 0 .292.065.468.195.177.129.32.194.428.194.244 0 .576-.065.999-.194.419-.13.738-.195.956-.195 1.004 0 2.476.077 4.418.229 1.94.154 3.4.23 4.376.23.76 0 1.867-.188 3.319-.564 1.452-.377 2.558-.565 3.318-.565 1.602 0 4.546.106 8.838.316v.037c1.208.012 2.877-.045 5.042-.177 2.443-.14 4.208-.211 5.295-.211.27 0 .657.07 1.159.211.502.14.89.21 1.162.21.378.026 1.043.084 1.994.179.868.069 1.547.105 2.035.105.136 0 .292.065.469.195.176.129.32.194.429.194.243 0 .575-.065.997-.194.421-.13.739-.195.957-.195 1.003 0 2.476.077 4.418.229 1.941.154 3.4.23 4.377.23.759 0 1.867-.188 3.319-.564 1.45-.377 2.558-.565 3.317-.565 1.603 0 4.547.106 8.837.316v.037c1.214.016 2.921-.041 5.146-.177 2.443-.14 4.207-.211 5.293-.211.272 0 .658.07 1.16.211.503.14.89.21 1.161.21.38.026 1.045.084 1.995.179.869.069 1.548.105 2.036.105.136 0 .292.065.469.195.176.129.319.194.427.194.244 0 .577-.065.999-.194.42-.13.737-.195.957-.195 1.003 0 2.476.077 4.417.229 1.94.154 3.4.23 4.377.23.76 0 1.866-.188 3.318-.564 1.453-.377 2.559-.565 3.319-.565 1.584 0 4.482.103 8.69.31a31.77 31.77 0 0 1 2.09-.058c2.444 0 5.253.153 8.43.458 2.66.26 4.628.553 5.905.883 2.903-.87 5.7-1.306 8.387-1.306.707 0 1.303.047 1.793.141 3.447.753 7.017 1.953 10.707 3.6zm-577.675 3.313c-1.086 0-1.629.353-1.629 1.062 0 .876.433 1.313 1.303 1.313.679 0 1.153-.19 1.425-.569.055-.093.082-.33.082-.707 0-.473-.07-.774-.204-.904-.137-.13-.461-.195-.977-.195zm-14.822-.953c-.57 0-.855.353-.855 1.058 0 .542.367.812 1.1.812.461 0 .767-.058.916-.177.15-.116.224-.388.224-.81 0-.589-.462-.883-1.385-.883zm-29.089.953c-1.084 0-1.629.353-1.629 1.062 0 .876.435 1.313 1.303 1.313.68 0 1.154-.19 1.426-.569.054-.093.082-.33.082-.707 0-.473-.069-.774-.205-.904-.135-.13-.461-.195-.977-.195zm-14.821-.953c-.569 0-.854.353-.854 1.058 0 .542.365.812 1.098.812.461 0 .768-.058.916-.177.15-.116.224-.388.224-.81 0-.589-.461-.883-1.384-.883zm-28.985.953c-1.086 0-1.629.353-1.629 1.062 0 .876.433 1.313 1.303 1.313.679 0 1.152-.19 1.425-.569.055-.093.082-.33.082-.707 0-.473-.07-.774-.204-.904-.137-.13-.461-.195-.977-.195zm-14.822-.953c-.57 0-.855.353-.855 1.058 0 .542.367.812 1.1.812.461 0 .767-.058.916-.177.15-.116.224-.388.224-.81 0-.589-.462-.883-1.385-.883zm-29.09.953c-1.085 0-1.629.353-1.629 1.062 0 .876.434 1.313 1.303 1.313.679 0 1.154-.19 1.425-.569.054-.093.083-.33.083-.707 0-.473-.07-.774-.205-.904-.136-.13-.461-.195-.977-.195zm-14.82-.953c-.57 0-.856.353-.856 1.058 0 .542.366.812 1.099.812.461 0 .768-.058.916-.177.149-.116.224-.388.224-.81 0-.589-.462-.883-1.383-.883zm-48.902 1.173c.107-.847.216-1.353.326-1.517-.76-.683-1.413-1.024-1.955-1.024-.57 0-2.003.618-4.295 1.853-2.294 1.235-3.441 2.017-3.441 2.347 0 .447.692 1.223 2.076 2.329l2.85 2.117c.135.024.462.142.977.353.381.165.707.247.978.247.543 0 .991-.258 1.343-.776.3-.424.449-.882.449-1.376 0-.706-.436-1.236-1.303-1.588-1.086-.447-1.697-.789-1.832-1.024.541-.33 1.425-.682 2.646-1.059.706-.023 1.1-.317 1.181-.882zm1.873-4.658a.28.28 0 0 0-.04.141c0 .73.826 1.83 2.483 3.3 1.656 1.47 2.905 2.205 3.746 2.205.625 0 1.222-.106 1.792-.317.76-.26 1.14-.6 1.14-1.024 0-.517-.313-1.035-.938-1.552-.95-.753-1.45-1.165-1.505-1.236.107-.258.657-.429 1.649-.511.99-.083 1.581-.206 1.771-.37.435-.33.652-.66.652-.989 0-.447-.421-.823-1.264-1.13-.678-.258-1.315-.387-1.912-.387-.706 0-1.955.247-3.748.74l-3.826 1.13zm.122 7.305c0 .8.311 1.2.935 1.2.165 0 .423-.065.775-.194.353-.13.625-.183.813-.16.436-.258.653-.61.653-1.058 0-.706-.38-1.058-1.14-1.058-.434 0-.882.129-1.344.388-.461.259-.692.553-.692.882zm10.628 7.076c.461-.271.692-.57.692-.9 0-.659-.461-1.07-1.384-1.235-.245-.024-1.005-.036-2.28-.036-.328 0-.476-.235-.449-.706v-.176c1.14-.612 1.833-1 2.077-1.165.759-.564 1.14-1.176 1.14-1.835 0-.705-.678-1.058-2.036-1.058-1.06 0-2.463.794-4.214 2.382-1.751 1.588-2.694 2.852-2.83 3.793.19.33.99.683 2.402 1.06 1.275.328 2.225.493 2.85.493.3 0 .754-.035 1.365-.106.61-.07 1.064-.106 1.364-.106.407 0 .84-.135 1.303-.405zm.468-11.117c.31.083.48.136.509.16 1.16.114 1.752.183 1.793.204.593-.02.894-.401.894-1.158 0-.635-.571-.953-1.71-.953-.325 0-.734.206-1.221.618-.489.412-.733.723-.733.935 0 .047.155.112.468.194zm3.073 8.205c.246-.306.368-.623.368-.953 0-.494-.407-.74-1.222-.74-.951 0-1.425.211-1.425.634 0 .4.109.753.326 1.06.27.376.61.564 1.018.564.353 0 .663-.188.935-.565zm11.158 1.878c0-.707-.665-1.207-1.996-1.502-1.33-.294-2.023-.571-2.076-.83l2.036-.778c.923-.377 1.385-.777 1.385-1.201 0-.33-.26-.607-.775-.83-.516-.225-.976-.336-1.383-.336-.923 0-2.28.6-4.072 1.802-1.873 1.225-2.81 2.203-2.81 2.933 0 .26.095.436.284.53.353.094.83.236 1.426.424 2.688.943 4.439 1.414 5.252 1.414.408 0 .938-.147 1.589-.442.652-.294 1.032-.595 1.14-.901zm-.978-11.896c1.385 0 2.078-.624 2.078-1.873 0-.541-.408-.977-1.222-1.307a6.06 6.06 0 0 0-2.077-.353c-.38 0-1.324.118-2.83.353-1.506.236-2.397.412-2.667.53-.597.236-1.195.46-1.791.671-.815.354-1.222.684-1.222.99 0 .4.448 1.16 1.344 2.279.896 1.119 1.574 1.831 2.036 2.137 1.249.848 2.266 1.272 3.054 1.272.704 0 1.411-.035 2.117-.106.216-.023.5-.164.855-.424.353-.259.53-.47.53-.636 0-.424-.24-.9-.714-1.43-.474-.53-.936-.854-1.384-.972-.447-.118-.671-.354-.671-.707 0-.094.04-.194.122-.3.081-.106.46-.16 1.139-.16.137 0 .352.013.652.036zm5.294 9.7c-.217-.729-.829-1.093-1.832-1.093-.626 0-.937.482-.937 1.446 0 .283.367.424 1.098.424.3 0 .625-.059.98-.177.46-.14.691-.317.691-.529zm-.02-8.001c.312-.189.468-.65.468-1.381 0-.874-.34-1.31-1.018-1.31-.407 0-.889.224-1.447.672-.556.449-.833.85-.833 1.204 0 .732.338 1.098 1.018 1.098.894 0 1.5-.094 1.812-.283zm2.462 2.982c0 .682.365 1.024 1.098 1.024.353 0 .7-.1 1.04-.3.338-.2.509-.442.509-.724s-.158-.53-.47-.74a1.675 1.675 0 0 0-.957-.319c-.814 0-1.22.352-1.22 1.06zm8.785 8.249c.922-.423 1.385-.916 1.385-1.48 0-.354-.285-.723-.855-1.112-.569-.387-1.086-.533-1.547-.44-.08 0-.339.06-.771.176-.3.095-.556.141-.774.141-.406 0-.61-.234-.61-.705 1.572-.962 2.36-1.749 2.36-2.36 0-.493-.678-.74-2.034-.74-1.247 0-2.523.629-3.825 1.886s-1.951 2.437-1.951 3.54c0 .471.92.881 2.766 1.235 1.409.258 2.588.387 3.538.387.732 0 1.506-.176 2.318-.528zm1.102-8.585c.541-.317.813-.675.813-1.075 0-.73-.882-1.506-2.645-2.33v-.14c0-.377.163-.565.488-.565.272 0 .673.076 1.2.229.53.153.93.228 1.2.228 1.086 0 1.79-.716 2.118-2.151-.354-.588-.963-1.088-1.832-1.501-.868-.41-1.696-.617-2.48-.617-.762 0-1.852.16-3.276.477-1.425.317-2.517.476-3.275.476-.462 0-.693.188-.693.565 0 1.67 1.302 3.517 3.906 5.54 1.14.894 2.115 1.341 2.93 1.341.487 0 1.003-.16 1.546-.477zm1.716 4.747c.165 0 .4-.117.714-.352.311-.236.469-.412.469-.53 0-.306-.212-.564-.631-.777-.423-.211-.823-.317-1.203-.317-.353 0-.53.224-.53.67 0 .282.116.571.347.865.23.294.509.441.834.441zm10.18 4.516c.977-.494 1.467-1.129 1.467-1.904 0-.682-.558-1.07-1.67-1.165-.163 0-.516.036-1.058.106-.544.07-.938.106-1.18.106-.083 0-.355-.059-.816-.176.027-.306.447-.6 1.263-.883.813-.282 1.22-.847 1.22-1.694 0-.211-.013-.447-.039-.705-.137-.777-.761-1.165-1.874-1.165-2.58 0-4.778 2.023-6.595 6.07.188.376 1.206.823 3.054 1.34 1.681.471 2.862.706 3.54.706.98 0 1.875-.211 2.688-.636zm4.642-3.73c.299-.189.448-.614.448-1.276 0-.638-.42-.956-1.261-.956-.463 0-.89.135-1.284.407-.394.272-.59.597-.59.973 0 .663.38.994 1.141.994.813 0 1.329-.047 1.546-.142zm-.326-8.514c.733 0 1.101-.247 1.101-.741 0-.306-.15-.73-.448-1.27-.761-1.271-2.43-1.906-5.01-1.906-.298 0-.758.011-1.383.034h-1.386c-1.357 0-2.035.577-2.035 1.73 0 1.53.544 2.953 1.628 4.27 1.168 1.459 2.593 2.187 4.277 2.187.433 0 .86-.163 1.281-.494.422-.328.632-.681.632-1.057 0-.847-.557-1.59-1.67-2.225.19-.47.53-.705 1.018-.705.219 0 .543.03.977.089.435.058.774.088 1.018.088zm9.781 12.413c.789-.4 1.183-.8 1.183-1.199 0-.893-.476-1.456-1.426-1.691-.898-.094-1.795-.2-2.691-.318 0-.424.414-.794 1.243-1.111.83-.317 1.243-.792 1.243-1.426 0-.47-.21-.858-.632-1.165a2.408 2.408 0 0 0-1.447-.457c-1.358 0-2.676.635-3.952 1.902-1.088 1.106-1.835 2.304-2.243 3.596.57.494 1.644 1.029 3.221 1.604 1.575.576 2.757.864 3.545.864.516 0 1.168-.2 1.956-.6zm1.6-9.051c.34-.377.509-.766.509-1.166 0-1.107-.937-2.073-2.808-2.897-.083-.094-.122-.177-.122-.247 0-.26.243-.39.733-.39.407 0 1.003.095 1.79.284.787.188 1.357.282 1.711.282.488 0 .902-.123 1.24-.37.34-.248.51-.585.51-1.008 0-.8-.692-1.485-2.075-2.05-1.169-.47-2.282-.705-3.34-.705-.245 0-.501.023-.774.07l-3.012.566c-1.412.376-2.119.86-2.119 1.448 0 .495.694 1.625 2.077 3.392 1.386 1.766 2.363 2.755 2.932 2.967.705.26 1.221.39 1.547.39.461 0 .862-.19 1.201-.566zm2.708 5.46c.87 0 1.303-.4 1.303-1.2 0-1.058-.625-1.588-1.873-1.588-.679 0-1.018.377-1.018 1.13 0 .306.176.658.53 1.057.352.401.705.601 1.058.601zm1.75-6.246c.164-.4.246-.682.246-.848 0-.658-.354-.987-1.06-.987-.325 0-.699.135-1.12.406-.42.27-.63.523-.63.759 0 .211.176.44.529.688.353.247.653.37.896.37.678 0 1.058-.13 1.14-.388zm1.973.741c0 .682.366 1.024 1.1 1.024.352 0 .697-.1 1.038-.3.338-.2.509-.442.509-.724s-.158-.53-.469-.74c-.312-.214-.63-.319-.957-.319-.814 0-1.221.352-1.221 1.06zm8.786 8.249c.921-.423 1.383-.916 1.383-1.48 0-.354-.284-.723-.854-1.112-.57-.387-1.086-.533-1.546-.44-.08 0-.339.06-.772.176a2.597 2.597 0 0 1-.773.141c-.407 0-.61-.234-.61-.705 1.572-.962 2.359-1.749 2.359-2.36 0-.493-.678-.74-2.034-.74-1.247 0-2.522.629-3.824 1.886-1.301 1.257-1.952 2.437-1.952 3.54 0 .471.922.881 2.766 1.235 1.409.258 2.588.387 3.539.387.732 0 1.505-.176 2.318-.528zm1.116-8.585c.543-.317.815-.675.815-1.075 0-.73-.885-1.506-2.65-2.33v-.14c0-.377.164-.565.49-.565.27 0 .672.076 1.202.229.53.153.93.228 1.2.228 1.088 0 1.795-.716 2.121-2.151-.354-.588-.964-1.088-1.835-1.501-.868-.41-1.698-.617-2.484-.617-.761 0-1.855.16-3.281.477-1.426.317-2.52.476-3.28.476-.464 0-.694.188-.694.565 0 1.67 1.303 3.517 3.911 5.54 1.143.894 2.12 1.341 2.936 1.341.49 0 1.005-.16 1.549-.477zm1.703 4.747c.162 0 .4-.117.712-.352.312-.236.468-.412.468-.53 0-.306-.21-.564-.63-.777-.421-.211-.822-.317-1.203-.317-.352 0-.528.224-.528.67 0 .282.115.571.346.865.23.294.509.441.835.441zm10.18 4.516c.976-.494 1.465-1.129 1.465-1.904 0-.682-.556-1.07-1.67-1.165-.164 0-.515.036-1.058.106s-.937.106-1.18.106c-.082 0-.355-.059-.815-.176.026-.306.448-.6 1.262-.883.814-.282 1.222-.847 1.222-1.694 0-.211-.014-.447-.041-.705-.136-.777-.76-1.165-1.875-1.165-2.578 0-4.776 2.023-6.595 6.07.19.376 1.208.823 3.054 1.34 1.682.471 2.863.706 3.541.706.979 0 1.875-.211 2.69-.636zm4.641-3.73c.299-.189.448-.614.448-1.276 0-.638-.422-.956-1.262-.956a2.21 2.21 0 0 0-1.283.407c-.393.272-.592.597-.592.973 0 .663.382.994 1.142.994.814 0 1.33-.047 1.547-.142zm-.326-8.514c.733 0 1.1-.247 1.1-.741 0-.306-.15-.73-.448-1.27-.76-1.271-2.43-1.906-5.008-1.906-.3 0-.76.011-1.385.034h-1.384c-1.358 0-2.036.577-2.036 1.73 0 1.53.543 2.953 1.628 4.27 1.166 1.459 2.593 2.187 4.276 2.187.434 0 .862-.163 1.283-.494.42-.328.63-.681.63-1.057 0-.847-.557-1.59-1.669-2.225.19-.47.53-.705 1.018-.705.217 0 .542.03.977.089.435.058.774.088 1.018.088zm9.782 12.413c.788-.4 1.182-.8 1.182-1.199 0-.893-.477-1.456-1.427-1.691-.897-.094-1.793-.2-2.69-.318 0-.424.413-.794 1.243-1.111.829-.317 1.243-.792 1.243-1.426 0-.47-.212-.858-.632-1.165a2.412 2.412 0 0 0-1.448-.457c-1.358 0-2.675.635-3.952 1.902-1.087 1.106-1.834 2.304-2.242 3.596.57.494 1.644 1.029 3.22 1.604 1.575.576 2.757.864 3.545.864.516 0 1.17-.2 1.958-.6zm1.598-9.051c.34-.377.509-.766.509-1.166 0-1.107-.935-2.073-2.808-2.897-.082-.094-.123-.177-.123-.247 0-.26.245-.39.733-.39.408 0 1.005.095 1.792.284.787.188 1.357.282 1.71.282.489 0 .901-.123 1.24-.37.34-.248.51-.585.51-1.008 0-.8-.691-1.485-2.076-2.05-1.167-.47-2.281-.705-3.338-.705a4.52 4.52 0 0 0-.774.07l-3.013.566c-1.412.376-2.118.86-2.118 1.448 0 .495.693 1.625 2.077 3.392 1.384 1.766 2.362 2.755 2.932 2.967.705.26 1.22.39 1.547.39.46 0 .86-.19 1.2-.566zm2.709 5.46c.869 0 1.302-.4 1.302-1.2 0-1.058-.623-1.588-1.872-1.588-.679 0-1.018.377-1.018 1.13 0 .306.175.658.53 1.057.352.401.705.601 1.058.601zm1.75-6.246c.164-.4.245-.682.245-.848 0-.658-.354-.987-1.059-.987-.325 0-.7.135-1.12.406-.421.27-.63.523-.63.759 0 .211.176.44.529.688.351.247.651.37.896.37.678 0 1.058-.13 1.14-.388zm1.868.741c0 .682.366 1.024 1.099 1.024.352 0 .699-.1 1.04-.3.337-.2.508-.442.508-.724s-.157-.53-.47-.74a1.675 1.675 0 0 0-.956-.319c-.815 0-1.22.352-1.22 1.06zm8.786 8.249c.922-.423 1.384-.916 1.384-1.48 0-.354-.285-.723-.854-1.112-.57-.387-1.086-.533-1.547-.44-.082 0-.34.06-.772.176-.3.095-.556.141-.774.141-.405 0-.61-.234-.61-.705 1.573-.962 2.36-1.749 2.36-2.36 0-.493-.679-.74-2.035-.74-1.246 0-2.522.629-3.823 1.886-1.302 1.257-1.952 2.437-1.952 3.54 0 .471.921.881 2.766 1.235 1.41.258 2.589.387 3.538.387.732 0 1.505-.176 2.319-.528zm1.11-8.585c.54-.317.812-.675.812-1.075 0-.73-.882-1.506-2.647-2.33v-.14c0-.377.163-.565.489-.565.271 0 .672.076 1.201.229.53.153.93.228 1.201.228 1.086 0 1.792-.716 2.118-2.151-.353-.588-.964-1.088-1.833-1.501-.868-.41-1.696-.617-2.482-.617-.761 0-1.853.16-3.278.477-1.426.317-2.519.476-3.278.476-.463 0-.693.188-.693.565 0 1.67 1.303 3.517 3.909 5.54 1.141.894 2.117 1.341 2.931 1.341.489 0 1.005-.16 1.55-.477zm1.708 4.747c.163 0 .4-.117.714-.352.31-.236.467-.412.467-.53 0-.306-.21-.564-.63-.777-.422-.211-.823-.317-1.203-.317-.352 0-.529.224-.529.67 0 .282.115.571.346.865.23.294.51.441.835.441zm10.18 4.516c.977-.494 1.465-1.129 1.465-1.904 0-.682-.556-1.07-1.67-1.165-.162 0-.515.036-1.056.106-.545.07-.938.106-1.181.106-.083 0-.354-.059-.816-.176.026-.306.448-.6 1.264-.883.813-.282 1.22-.847 1.22-1.694 0-.211-.014-.447-.04-.705-.137-.777-.76-1.165-1.874-1.165-2.58 0-4.778 2.023-6.595 6.07.189.376 1.207.823 3.054 1.34 1.682.471 2.862.706 3.541.706.979 0 1.874-.211 2.688-.636zm4.641-3.73c.299-.189.448-.614.448-1.276 0-.638-.42-.956-1.26-.956-.463 0-.891.135-1.285.407-.393.272-.59.597-.59.973 0 .663.38.994 1.141.994.813 0 1.33-.047 1.546-.142zm-.325-8.514c.733 0 1.1-.247 1.1-.741 0-.306-.15-.73-.447-1.27-.762-1.271-2.431-1.906-5.01-1.906-.299 0-.759.011-1.383.034h-1.386c-1.357 0-2.036.577-2.036 1.73 0 1.53.543 2.953 1.629 4.27 1.167 1.459 2.592 2.187 4.277 2.187.433 0 .86-.163 1.28-.494.423-.328.632-.681.632-1.057 0-.847-.557-1.59-1.67-2.225.19-.47.53-.705 1.018-.705.218 0 .543.03.978.089.434.058.773.088 1.018.088zm9.772 12.413c.787-.4 1.18-.8 1.18-1.199 0-.893-.474-1.456-1.423-1.691-.897-.094-1.793-.2-2.689-.318 0-.424.414-.794 1.242-1.111.828-.317 1.242-.792 1.242-1.426 0-.47-.21-.858-.63-1.165a2.404 2.404 0 0 0-1.446-.457c-1.358 0-2.674.635-3.949 1.902-1.087 1.106-1.833 2.304-2.24 3.596.57.494 1.642 1.029 3.216 1.604 1.575.576 2.755.864 3.543.864.515 0 1.167-.2 1.954-.6zm1.608-9.051c.34-.377.51-.766.51-1.166 0-1.107-.937-2.073-2.81-2.897-.082-.094-.12-.177-.12-.247 0-.26.242-.39.732-.39.406 0 1.003.095 1.79.284.788.188 1.358.282 1.712.282.487 0 .901-.123 1.24-.37.34-.248.51-.585.51-1.008 0-.8-.693-1.485-2.076-2.05-1.169-.47-2.282-.705-3.339-.705-.246 0-.503.023-.775.07l-3.012.566c-1.413.376-2.118.86-2.118 1.448 0 .495.693 1.625 2.076 3.392 1.386 1.766 2.362 2.755 2.932 2.967.706.26 1.222.39 1.547.39.462 0 .862-.19 1.201-.566zm2.708 5.46c.87 0 1.303-.4 1.303-1.2 0-1.058-.624-1.588-1.873-1.588-.678 0-1.018.377-1.018 1.13 0 .306.177.658.53 1.057.352.401.705.601 1.058.601zm1.751-6.246c.163-.4.246-.682.246-.848 0-.658-.354-.987-1.06-.987-.326 0-.7.135-1.12.406-.42.27-.631.523-.631.759 0 .211.176.44.53.688.352.247.65.37.895.37.679 0 1.059-.13 1.14-.388zm1.97.741c0 .682.367 1.024 1.1 1.024.352 0 .698-.1 1.039-.3.338-.2.509-.442.509-.724s-.158-.53-.469-.74c-.312-.214-.63-.319-.957-.319-.814 0-1.221.352-1.221 1.06zm8.796 8.249c.922-.423 1.385-.916 1.385-1.48 0-.354-.285-.723-.856-1.112-.57-.387-1.087-.533-1.547-.44-.081 0-.34.06-.773.176a2.602 2.602 0 0 1-.774.141c-.407 0-.61-.234-.61-.705 1.574-.962 2.36-1.749 2.36-2.36 0-.493-.678-.74-2.035-.74-1.249 0-2.525.629-3.828 1.886s-1.954 2.437-1.954 3.54c0 .471.923.881 2.769 1.235 1.41.258 2.59.387 3.542.387.733 0 1.507-.176 2.321-.528zm1.092-8.585c.543-.317.814-.675.814-1.075 0-.73-.883-1.506-2.644-2.33v-.14c0-.377.162-.565.488-.565.27 0 .671.076 1.2.229.529.153.927.228 1.199.228 1.085 0 1.791-.716 2.117-2.151-.354-.588-.963-1.088-1.833-1.501-.866-.41-1.695-.617-2.48-.617-.76 0-1.851.16-3.275.477-1.425.317-2.515.476-3.275.476-.462 0-.693.188-.693.565 0 1.67 1.302 3.517 3.906 5.54 1.14.894 2.117 1.341 2.93 1.341.488 0 1.004-.16 1.546-.477zm1.718 4.747c.163 0 .4-.117.712-.352.312-.236.469-.412.469-.53 0-.306-.21-.564-.632-.777-.42-.211-.82-.317-1.202-.317-.352 0-.528.224-.528.67 0 .282.115.571.346.865.23.294.509.441.835.441zm10.18 4.516c.977-.494 1.465-1.129 1.465-1.904 0-.682-.556-1.07-1.67-1.165-.164 0-.515.036-1.058.106s-.936.106-1.18.106c-.082 0-.355-.059-.815-.176.026-.306.448-.6 1.262-.883.814-.282 1.222-.847 1.222-1.694 0-.211-.014-.447-.041-.705-.136-.777-.76-1.165-1.874-1.165-2.58 0-4.777 2.023-6.596 6.07.19.376 1.208.823 3.054 1.34 1.682.471 2.863.706 3.542.706.978 0 1.874-.211 2.688-.636zm4.641-3.73c.299-.189.448-.614.448-1.276 0-.638-.422-.956-1.262-.956a2.21 2.21 0 0 0-1.283.407c-.393.272-.592.597-.592.973 0 .663.382.994 1.142.994.814 0 1.33-.047 1.547-.142zm-.326-8.514c.733 0 1.1-.247 1.1-.741 0-.306-.15-.73-.448-1.27-.76-1.271-2.43-1.906-5.008-1.906-.299 0-.76.011-1.385.034h-1.384c-1.358 0-2.036.577-2.036 1.73 0 1.53.543 2.953 1.629 4.27 1.165 1.459 2.592 2.187 4.275 2.187.434 0 .862-.163 1.283-.494.42-.328.63-.681.63-1.057 0-.847-.557-1.59-1.669-2.225.19-.47.53-.705 1.018-.705.217 0 .542.03.978.089.434.058.773.088 1.017.088zm9.782 12.413c.788-.4 1.182-.8 1.182-1.199 0-.893-.477-1.456-1.427-1.691-.897-.094-1.793-.2-2.69-.318 0-.424.413-.794 1.243-1.111.829-.317 1.243-.792 1.243-1.426 0-.47-.212-.858-.631-1.165a2.412 2.412 0 0 0-1.449-.457c-1.358 0-2.675.635-3.952 1.902-1.088 1.106-1.834 2.304-2.242 3.596.57.494 1.644 1.029 3.22 1.604 1.575.576 2.757.864 3.545.864.516 0 1.17-.2 1.958-.6zm1.591-9.051c.34-.377.509-.766.509-1.166 0-1.107-.935-2.073-2.806-2.897-.083-.094-.122-.177-.122-.247 0-.26.244-.39.732-.39.407 0 1.002.095 1.79.284.787.188 1.356.282 1.709.282.488 0 .9-.123 1.24-.37.338-.248.508-.585.508-1.008 0-.8-.69-1.485-2.074-2.05-1.166-.47-2.28-.705-3.336-.705-.245 0-.501.023-.773.07l-3.01.566c-1.41.376-2.116.86-2.116 1.448 0 .495.692 1.625 2.075 3.392 1.383 1.766 2.36 2.755 2.93 2.967.703.26 1.218.39 1.545.39.46 0 .86-.19 1.2-.566zm2.715 5.46c.87 0 1.303-.4 1.303-1.2 0-1.058-.625-1.588-1.872-1.588-.679 0-1.018.377-1.018 1.13 0 .306.175.658.53 1.057.352.401.705.601 1.057.601zm1.752-6.246c.163-.4.244-.682.244-.848 0-.658-.354-.987-1.058-.987-.326 0-.7.135-1.12.406-.422.27-.631.523-.631.759 0 .211.176.44.529.688.352.247.652.37.896.37.678 0 1.059-.13 1.14-.388zm163.348-.953c-1.086 0-1.63.353-1.63 1.062 0 .876.434 1.313 1.304 1.313.678 0 1.153-.19 1.425-.569.054-.093.081-.33.081-.707 0-.473-.069-.774-.203-.904-.137-.13-.462-.195-.977-.195zm-14.822-.953c-.57 0-.855.353-.855 1.058 0 .542.366.812 1.1.812.46 0 .766-.058.915-.177.15-.116.224-.388.224-.81 0-.589-.461-.883-1.384-.883zm-29.09.953c-1.085 0-1.63.353-1.63 1.062 0 .876.435 1.313 1.304 1.313.678 0 1.153-.19 1.425-.569.054-.093.083-.33.083-.707 0-.473-.07-.774-.205-.904-.136-.13-.462-.195-.976-.195zm-14.82-.953c-.57 0-.856.353-.856 1.058 0 .542.365.812 1.098.812.462 0 .768-.058.916-.177.151-.116.224-.388.224-.81 0-.589-.461-.883-1.383-.883zm-28.987.953c-1.086 0-1.629.353-1.629 1.062 0 .876.433 1.313 1.303 1.313.679 0 1.154-.19 1.425-.569.055-.093.082-.33.082-.707 0-.473-.068-.774-.204-.904-.137-.13-.461-.195-.977-.195zm-14.821-.953c-.57 0-.856.353-.856 1.058 0 .542.367.812 1.1.812.461 0 .767-.058.916-.177.15-.116.224-.388.224-.81 0-.589-.462-.883-1.384-.883zm-29.088.953c-1.086 0-1.63.353-1.63 1.062 0 .876.434 1.313 1.303 1.313.678 0 1.153-.19 1.425-.569.054-.093.082-.33.082-.707 0-.473-.069-.774-.204-.904-.136-.13-.46-.195-.976-.195zm-14.826-.953c-.567 0-.851.353-.851 1.058 0 .542.364.812 1.093.812.46 0 .765-.058.912-.177.15-.116.223-.388.223-.81 0-.589-.46-.883-1.377-.883zm-14.817 2.647c0 .682.365 1.024 1.098 1.024.353 0 .699-.1 1.04-.3.337-.2.508-.442.508-.724s-.157-.53-.47-.74a1.675 1.675 0 0 0-.956-.319c-.813 0-1.22.352-1.22 1.06zm8.793 8.249c.923-.423 1.386-.916 1.386-1.48 0-.354-.285-.723-.855-1.112-.57-.387-1.087-.533-1.549-.44-.08 0-.339.06-.772.176-.3.095-.556.141-.773.141-.408 0-.613-.234-.613-.705 1.576-.962 2.363-1.749 2.363-2.36 0-.493-.678-.74-2.036-.74-1.248 0-2.525.629-3.828 1.886s-1.954 2.437-1.954 3.54c0 .471.923.881 2.77 1.235 1.41.258 2.59.387 3.54.387.733 0 1.508-.176 2.321-.528zm1.101-8.585c.542-.317.813-.675.813-1.075 0-.73-.882-1.506-2.647-2.33v-.14c0-.377.163-.565.49-.565.27 0 .672.076 1.2.229.531.153.93.228 1.201.228 1.086 0 1.792-.716 2.12-2.151-.355-.588-.964-1.088-1.834-1.501-.87-.41-1.697-.617-2.483-.617-.761 0-1.853.16-3.278.477-1.426.317-2.519.476-3.278.476-.462 0-.693.188-.693.565 0 1.67 1.303 3.517 3.909 5.54 1.141.894 2.118 1.341 2.932 1.341.49 0 1.004-.16 1.548-.477zm1.71 4.747c.163 0 .4-.117.713-.352.31-.236.468-.412.468-.53 0-.306-.212-.564-.63-.777-.423-.211-.823-.317-1.203-.317-.353 0-.53.224-.53.67 0 .282.116.571.346.865.231.294.51.441.836.441zm10.18 4.516c.976-.494 1.466-1.129 1.466-1.904 0-.682-.557-1.07-1.671-1.165-.163 0-.516.036-1.057.106-.543.07-.938.106-1.181.106-.083 0-.354-.059-.816-.176.027-.306.448-.6 1.264-.883.813-.282 1.22-.847 1.22-1.694 0-.211-.012-.447-.04-.705-.136-.777-.76-1.165-1.874-1.165-2.579 0-4.776 2.023-6.595 6.07.189.376 1.207.823 3.054 1.34 1.682.471 2.863.706 3.541.706.979 0 1.875-.211 2.689-.636zm4.633-3.73c.297-.189.447-.614.447-1.276 0-.638-.421-.956-1.258-.956-.462 0-.887.135-1.279.407-.392.272-.59.597-.59.973 0 .663.379.994 1.138.994.81 0 1.324-.047 1.542-.142zm-.318-8.514c.733 0 1.1-.247 1.1-.741 0-.306-.15-.73-.447-1.27-.762-1.271-2.43-1.906-5.01-1.906-.297 0-.759.011-1.383.034h-1.386c-1.357 0-2.036.577-2.036 1.73 0 1.53.544 2.953 1.629 4.27 1.167 1.459 2.594 2.187 4.277 2.187.433 0 .862-.163 1.28-.494.423-.328.632-.681.632-1.057 0-.847-.556-1.59-1.668-2.225.189-.47.528-.705 1.018-.705.217 0 .541.03.976.089.435.058.775.088 1.018.088zm9.772 12.413c.789-.4 1.182-.8 1.182-1.199 0-.893-.476-1.456-1.425-1.691-.896-.094-1.793-.2-2.689-.318 0-.424.414-.794 1.242-1.111.83-.317 1.242-.792 1.242-1.426 0-.47-.21-.858-.63-1.165a2.408 2.408 0 0 0-1.446-.457c-1.358 0-2.674.635-3.949 1.902-1.087 1.106-1.833 2.304-2.24 3.596.57.494 1.643 1.029 3.218 1.604 1.573.576 2.753.864 3.54.864.516 0 1.168-.2 1.955-.6zm1.609-9.051c.339-.377.509-.766.509-1.166 0-1.107-.936-2.073-2.809-2.897-.082-.094-.122-.177-.122-.247 0-.26.244-.39.733-.39.407 0 1.003.095 1.79.284.788.188 1.358.282 1.712.282.487 0 .901-.123 1.24-.37.34-.248.51-.585.51-1.008 0-.8-.693-1.485-2.076-2.05-1.168-.47-2.281-.705-3.339-.705-.245 0-.502.023-.775.07l-3.012.566c-1.411.376-2.118.86-2.118 1.448 0 .495.693 1.625 2.076 3.392 1.386 1.766 2.363 2.755 2.933 2.967.705.26 1.22.39 1.546.39.462 0 .862-.19 1.202-.566zm2.707 5.46c.87 0 1.303-.4 1.303-1.2 0-1.058-.624-1.588-1.873-1.588-.678 0-1.018.377-1.018 1.13 0 .306.177.658.531 1.057.353.401.704.601 1.057.601zm1.751-6.246c.163-.4.246-.682.246-.848 0-.658-.354-.987-1.059-.987-.327 0-.7.135-1.12.406-.422.27-.63.523-.63.759 0 .211.174.44.527.688.353.247.653.37.896.37.679 0 1.06-.13 1.14-.388zm1.971.741c0 .682.367 1.024 1.1 1.024.352 0 .698-.1 1.04-.3.337-.2.508-.442.508-.724s-.159-.53-.47-.74c-.312-.214-.63-.319-.956-.319-.815 0-1.222.352-1.222 1.06zm8.795 8.249c.923-.423 1.385-.916 1.385-1.48 0-.354-.285-.723-.855-1.112-.57-.387-1.086-.533-1.548-.44-.081 0-.34.06-.772.176-.3.095-.558.141-.775.141-.407 0-.61-.234-.61-.705 1.574-.962 2.36-1.749 2.36-2.36 0-.493-.678-.74-2.035-.74-1.249 0-2.525.629-3.828 1.886s-1.954 2.437-1.954 3.54c0 .471.923.881 2.77 1.235 1.41.258 2.591.387 3.541.387.733 0 1.507-.176 2.321-.528zm1.107-8.585c.543-.317.815-.675.815-1.075 0-.73-.883-1.506-2.649-2.33v-.14c0-.377.163-.565.489-.565.27 0 .672.076 1.202.229.531.153.93.228 1.202.228 1.087 0 1.794-.716 2.12-2.151-.354-.588-.965-1.088-1.834-1.501-.87-.41-1.698-.617-2.485-.617-.762 0-1.856.16-3.28.477-1.428.317-2.522.476-3.283.476-.461 0-.692.188-.692.565 0 1.67 1.304 3.517 3.912 5.54 1.141.894 2.12 1.341 2.934 1.341.49 0 1.005-.16 1.549-.477zm1.703 4.747c.163 0 .4-.117.714-.352.31-.236.467-.412.467-.53 0-.306-.21-.564-.632-.777-.42-.211-.82-.317-1.2-.317-.354 0-.53.224-.53.67 0 .282.115.571.346.865.23.294.51.441.835.441zm10.18 4.516c.977-.494 1.465-1.129 1.465-1.904 0-.682-.556-1.07-1.67-1.165-.162 0-.515.036-1.058.106s-.936.106-1.18.106c-.082 0-.354-.059-.815-.176.026-.306.448-.6 1.262-.883.815-.282 1.222-.847 1.222-1.694 0-.211-.014-.447-.04-.705-.137-.777-.761-1.165-1.874-1.165-2.58 0-4.778 2.023-6.596 6.07.19.376 1.208.823 3.053 1.34 1.684.471 2.864.706 3.543.706.977 0 1.874-.211 2.687-.636zm4.633-3.73c.297-.189.446-.614.446-1.276 0-.638-.42-.956-1.258-.956a2.2 2.2 0 0 0-1.279.407c-.392.272-.588.597-.588.973 0 .663.379.994 1.136.994.812 0 1.326-.047 1.543-.142zm-.317-8.514c.733 0 1.099-.247 1.099-.741 0-.306-.15-.73-.448-1.27-.76-1.271-2.43-1.906-5.008-1.906-.299 0-.76.011-1.385.034h-1.384c-1.357 0-2.036.577-2.036 1.73 0 1.53.543 2.953 1.629 4.27 1.166 1.459 2.592 2.187 4.275 2.187.434 0 .862-.163 1.283-.494.42-.328.63-.681.63-1.057 0-.847-.557-1.59-1.669-2.225.19-.47.53-.705 1.018-.705.218 0 .543.03.978.089.434.058.773.088 1.018.088zm9.772 12.413c.787-.4 1.18-.8 1.18-1.199 0-.893-.474-1.456-1.424-1.691-.896-.094-1.792-.2-2.688-.318 0-.424.414-.794 1.242-1.111.828-.317 1.242-.792 1.242-1.426 0-.47-.21-.858-.631-1.165a2.404 2.404 0 0 0-1.446-.457c-1.357 0-2.673.635-3.948 1.902-1.087 1.106-1.834 2.304-2.24 3.596.57.494 1.642 1.029 3.216 1.604 1.573.576 2.755.864 3.543.864.515 0 1.167-.2 1.954-.6zm1.608-9.051c.34-.377.51-.766.51-1.166 0-1.107-.937-2.073-2.81-2.897-.082-.094-.122-.177-.122-.247 0-.26.244-.39.733-.39.407 0 1.004.095 1.791.284.787.188 1.357.282 1.712.282.487 0 .9-.123 1.24-.37.34-.248.51-.585.51-1.008 0-.8-.693-1.485-2.077-2.05-1.168-.47-2.28-.705-3.34-.705-.244 0-.502.023-.773.07l-3.013.566c-1.412.376-2.117.86-2.117 1.448 0 .495.693 1.625 2.076 3.392 1.386 1.766 2.362 2.755 2.932 2.967.706.26 1.221.39 1.547.39.462 0 .862-.19 1.201-.566zm2.708 5.46c.869 0 1.303-.4 1.303-1.2 0-1.058-.624-1.588-1.873-1.588-.679 0-1.018.377-1.018 1.13 0 .306.177.658.53 1.057.352.401.705.601 1.058.601zm1.751-6.246c.163-.4.244-.682.244-.848 0-.658-.353-.987-1.058-.987-.326 0-.7.135-1.12.406-.422.27-.631.523-.631.759 0 .211.176.44.53.688.352.247.65.37.895.37.679 0 1.059-.13 1.14-.388zm1.868.741c0 .682.363 1.024 1.094 1.024.351 0 .696-.1 1.035-.3.337-.2.507-.442.507-.724s-.156-.53-.467-.74a1.664 1.664 0 0 0-.954-.319c-.81 0-1.215.352-1.215 1.06zm8.793 8.249c.923-.423 1.386-.916 1.386-1.48 0-.354-.285-.723-.855-1.112-.57-.387-1.087-.533-1.548-.44-.08 0-.34.06-.773.176-.3.095-.556.141-.773.141-.408 0-.613-.234-.613-.705 1.576-.962 2.363-1.749 2.363-2.36 0-.493-.678-.74-2.035-.74-1.25 0-2.526.629-3.83 1.886-1.302 1.257-1.952 2.437-1.952 3.54 0 .471.922.881 2.768 1.235 1.41.258 2.591.387 3.542.387.732 0 1.507-.176 2.32-.528zm1.101-8.585c.542-.317.813-.675.813-1.075 0-.73-.882-1.506-2.646-2.33v-.14c0-.377.162-.565.49-.565.27 0 .671.076 1.2.229.53.153.93.228 1.2.228 1.086 0 1.792-.716 2.12-2.151-.355-.588-.964-1.088-1.834-1.501-.87-.41-1.697-.617-2.483-.617-.761 0-1.853.16-3.278.477-1.426.317-2.519.476-3.278.476-.462 0-.693.188-.693.565 0 1.67 1.303 3.517 3.909 5.54 1.141.894 2.119 1.341 2.932 1.341.49 0 1.004-.16 1.548-.477zm1.71 4.747c.163 0 .4-.117.713-.352.31-.236.468-.412.468-.53 0-.306-.211-.564-.63-.777-.423-.211-.823-.317-1.203-.317-.353 0-.53.224-.53.67 0 .282.116.571.346.865.231.294.51.441.836.441zm10.18 4.516c.976-.494 1.466-1.129 1.466-1.904 0-.682-.558-1.07-1.67-1.165-.164 0-.517.036-1.058.106-.544.07-.938.106-1.181.106-.083 0-.354-.059-.816-.176.027-.306.448-.6 1.264-.883.813-.282 1.22-.847 1.22-1.694 0-.211-.014-.447-.04-.705-.136-.777-.76-1.165-1.874-1.165-2.579 0-4.776 2.023-6.595 6.07.189.376 1.207.823 3.054 1.34 1.682.471 2.863.706 3.541.706.979 0 1.875-.211 2.69-.636zm4.64-3.73c.3-.189.45-.614.45-1.276 0-.638-.422-.956-1.262-.956a2.21 2.21 0 0 0-1.283.407c-.394.272-.592.597-.592.973 0 .663.38.994 1.142.994.813 0 1.328-.047 1.546-.142zm-.316-8.514c.733 0 1.102-.247 1.102-.741 0-.306-.151-.73-.449-1.27-.762-1.271-2.432-1.906-5.014-1.906-.298 0-.76.011-1.385.034h-1.387c-1.359 0-2.038.577-2.038 1.73 0 1.53.545 2.953 1.63 4.27 1.169 1.459 2.597 2.187 4.281 2.187.434 0 .863-.163 1.283-.494.423-.328.632-.681.632-1.057 0-.847-.557-1.59-1.67-2.225.189-.47.529-.705 1.019-.705.217 0 .542.03.977.089.436.058.776.088 1.019.088zm9.772 12.413c.79-.4 1.183-.8 1.183-1.199 0-.893-.476-1.456-1.426-1.691-.897-.094-1.795-.2-2.692-.318 0-.424.415-.794 1.244-1.111.83-.317 1.243-.792 1.243-1.426 0-.47-.21-.858-.63-1.165a2.415 2.415 0 0 0-1.449-.457c-1.359 0-2.677.635-3.952 1.902-1.089 1.106-1.836 2.304-2.242 3.596.57.494 1.643 1.029 3.22 1.604 1.575.576 2.757.864 3.545.864.516 0 1.168-.2 1.956-.6zm1.6-9.051c.339-.377.509-.766.509-1.166 0-1.107-.936-2.073-2.809-2.897-.082-.094-.122-.177-.122-.247 0-.26.245-.39.733-.39.407 0 1.003.095 1.79.284.788.188 1.358.282 1.712.282.487 0 .901-.123 1.24-.37.34-.248.51-.585.51-1.008 0-.8-.693-1.485-2.076-2.05-1.168-.47-2.281-.705-3.339-.705-.245 0-.502.023-.775.07l-3.011.566c-1.412.376-2.12.86-2.12 1.448 0 .495.694 1.625 2.077 3.392 1.386 1.766 2.363 2.755 2.934 2.967.704.26 1.22.39 1.545.39.462 0 .862-.19 1.202-.566zm2.707 5.46c.87 0 1.303-.4 1.303-1.2 0-1.058-.624-1.588-1.873-1.588-.678 0-1.018.377-1.018 1.13 0 .306.177.658.531 1.057.353.401.705.601 1.057.601zm1.751-6.246c.163-.4.246-.682.246-.848 0-.658-.354-.987-1.059-.987-.327 0-.7.135-1.12.406-.422.27-.63.523-.63.759 0 .211.175.44.527.688.353.247.653.37.896.37.679 0 1.06-.13 1.14-.388zm1.972.741c0 .682.366 1.024 1.096 1.024.351 0 .696-.1 1.034-.3.338-.2.507-.442.507-.724s-.157-.53-.466-.74c-.311-.214-.63-.319-.954-.319-.81 0-1.217.352-1.217 1.06zm8.796 8.249c.921-.423 1.384-.916 1.384-1.48 0-.354-.285-.723-.855-1.112-.57-.387-1.086-.533-1.547-.44-.082 0-.34.06-.774.176a2.602 2.602 0 0 1-.774.141c-.407 0-.61-.234-.61-.705 1.574-.962 2.361-1.749 2.361-2.36 0-.493-.678-.74-2.036-.74-1.248 0-2.524.629-3.827 1.886s-1.955 2.437-1.955 3.54c0 .471.923.881 2.77 1.235 1.41.258 2.592.387 3.542.387.733 0 1.506-.176 2.32-.528zm1.106-8.585c.544-.317.815-.675.815-1.075 0-.73-.883-1.506-2.649-2.33v-.14c0-.377.163-.565.49-.565.27 0 .672.076 1.202.229.53.153.929.228 1.202.228 1.085 0 1.793-.716 2.12-2.151-.355-.588-.965-1.088-1.835-1.501-.87-.41-1.698-.617-2.486-.617-.76 0-1.854.16-3.28.477-1.427.317-2.52.476-3.281.476-.462 0-.693.188-.693.565 0 1.67 1.304 3.517 3.912 5.54 1.141.894 2.12 1.341 2.935 1.341.489 0 1.005-.16 1.548-.477zm1.703 4.747c.163 0 .4-.117.713-.352.312-.236.468-.412.468-.53 0-.306-.21-.564-.631-.777-.42-.211-.821-.317-1.201-.317-.353 0-.53.224-.53.67 0 .282.116.571.347.865.23.294.508.441.834.441zm10.18 4.516c.977-.494 1.466-1.129 1.466-1.904 0-.682-.557-1.07-1.67-1.165-.163 0-.516.036-1.058.106-.543.07-.937.106-1.181.106-.082 0-.353-.059-.815-.176.026-.306.448-.6 1.263-.883.814-.282 1.221-.847 1.221-1.694 0-.211-.013-.447-.04-.705-.136-.777-.76-1.165-1.874-1.165-2.58 0-4.777 2.023-6.596 6.07.19.376 1.208.823 3.054 1.34 1.683.471 2.864.706 3.542.706.978 0 1.873-.211 2.688-.636zm4.633-3.73c.298-.189.447-.614.447-1.276 0-.638-.42-.956-1.259-.956a2.2 2.2 0 0 0-1.278.407c-.392.272-.589.597-.589.973 0 .663.38.994 1.137.994.812 0 1.326-.047 1.542-.142zm-.317-8.514c.733 0 1.1-.247 1.1-.741 0-.306-.15-.73-.448-1.27-.76-1.271-2.43-1.906-5.009-1.906-.298 0-.76.011-1.384.034h-1.385c-1.357 0-2.036.577-2.036 1.73 0 1.53.543 2.953 1.63 4.27 1.165 1.459 2.592 2.187 4.275 2.187.434 0 .861-.163 1.282-.494.42-.328.631-.681.631-1.057 0-.847-.558-1.59-1.67-2.225.19-.47.53-.705 1.019-.705.217 0 .541.03.977.089.434.058.774.088 1.018.088zm9.772 12.413c.788-.4 1.181-.8 1.181-1.199 0-.893-.475-1.456-1.425-1.691-.896-.094-1.791-.2-2.687-.318 0-.424.414-.794 1.242-1.111.828-.317 1.242-.792 1.242-1.426 0-.47-.21-.858-.632-1.165a2.404 2.404 0 0 0-1.445-.457c-1.357 0-2.674.635-3.95 1.902-1.086 1.106-1.832 2.304-2.24 3.596.57.494 1.643 1.029 3.217 1.604 1.574.576 2.754.864 3.543.864.514 0 1.167-.2 1.954-.6zm1.609-9.051c.34-.377.509-.766.509-1.166 0-1.107-.937-2.073-2.81-2.897-.081-.094-.122-.177-.122-.247 0-.26.244-.39.733-.39.407 0 1.004.095 1.792.284.787.188 1.357.282 1.71.282.488 0 .902-.123 1.242-.37.339-.248.509-.585.509-1.008 0-.8-.693-1.485-2.077-2.05-1.167-.47-2.28-.705-3.339-.705-.244 0-.502.023-.774.07l-3.013.566c-1.411.376-2.117.86-2.117 1.448 0 .495.692 1.625 2.077 3.392 1.384 1.766 2.361 2.755 2.931 2.967.706.26 1.222.39 1.548.39.461 0 .861-.19 1.2-.566zm2.708 5.46c.868 0 1.303-.4 1.303-1.2 0-1.058-.625-1.588-1.873-1.588-.68 0-1.018.377-1.018 1.13 0 .306.176.658.529 1.057.353.401.706.601 1.059.601zm1.75-6.246c.163-.4.245-.682.245-.848 0-.658-.353-.987-1.059-.987-.326 0-.7.135-1.12.406-.422.27-.63.523-.63.759 0 .211.176.44.529.688.351.247.651.37.895.37.679 0 1.06-.13 1.14-.388zm163.363-.953c-1.086 0-1.629.353-1.629 1.062 0 .876.433 1.313 1.303 1.313.679 0 1.153-.19 1.425-.569.055-.093.082-.33.082-.707 0-.473-.07-.774-.204-.904-.137-.13-.461-.195-.977-.195zm-14.822-.953c-.57 0-.855.353-.855 1.058 0 .542.367.812 1.1.812.461 0 .767-.058.916-.177.15-.116.224-.388.224-.81 0-.589-.462-.883-1.385-.883zm-29.089.953c-1.084 0-1.629.353-1.629 1.062 0 .876.435 1.313 1.303 1.313.68 0 1.154-.19 1.426-.569.054-.093.082-.33.082-.707 0-.473-.069-.774-.205-.904-.135-.13-.461-.195-.977-.195zm-14.82-.953c-.57 0-.855.353-.855 1.058 0 .542.365.812 1.098.812.461 0 .768-.058.916-.177.15-.116.224-.388.224-.81 0-.589-.461-.883-1.383-.883zm-28.986.953c-1.086 0-1.629.353-1.629 1.062 0 .876.433 1.313 1.303 1.313.679 0 1.152-.19 1.425-.569.055-.093.082-.33.082-.707 0-.473-.07-.774-.204-.904-.137-.13-.461-.195-.977-.195zm-14.825-.953c-.568 0-.852.353-.852 1.058 0 .542.365.812 1.095.812.46 0 .763-.058.912-.177.149-.116.223-.388.223-.81 0-.589-.46-.883-1.378-.883zm-29.086.953c-1.086 0-1.63.353-1.63 1.062 0 .876.434 1.313 1.303 1.313.679 0 1.154-.19 1.425-.569.054-.093.083-.33.083-.707 0-.473-.07-.774-.205-.904-.136-.13-.461-.195-.976-.195zm-14.821-.953c-.57 0-.855.353-.855 1.058 0 .542.365.812 1.098.812.461 0 .768-.058.916-.177.149-.116.224-.388.224-.81 0-.589-.462-.883-1.383-.883zm-14.822 2.647c0 .682.364 1.024 1.094 1.024.352 0 .696-.1 1.036-.3.336-.2.507-.442.507-.724s-.157-.53-.468-.74a1.664 1.664 0 0 0-.953-.319c-.81 0-1.216.352-1.216 1.06zm8.794 8.249c.923-.423 1.386-.916 1.386-1.48 0-.354-.285-.723-.855-1.112-.57-.387-1.088-.533-1.55-.44-.08 0-.338.06-.771.176-.3.095-.557.141-.774.141-.407 0-.612-.234-.612-.705 1.576-.962 2.363-1.749 2.363-2.36 0-.493-.679-.74-2.036-.74-1.249 0-2.526.629-3.829 1.886-1.303 1.257-1.953 2.437-1.953 3.54 0 .471.923.881 2.769 1.235 1.41.258 2.59.387 3.54.387.734 0 1.509-.176 2.322-.528zm1.1-8.585c.542-.317.814-.675.814-1.075 0-.73-.883-1.506-2.647-2.33v-.14c0-.377.163-.565.49-.565.27 0 .672.076 1.2.229.53.153.93.228 1.201.228 1.086 0 1.792-.716 2.119-2.151-.355-.588-.964-1.088-1.834-1.501-.869-.41-1.697-.617-2.482-.617-.762 0-1.853.16-3.278.477-1.427.317-2.52.476-3.278.476-.463 0-.694.188-.694.565 0 1.67 1.303 3.517 3.91 5.54 1.14.894 2.118 1.341 2.931 1.341.489 0 1.004-.16 1.549-.477zm1.71 4.747c.164 0 .4-.117.713-.352.311-.236.469-.412.469-.53 0-.306-.212-.564-.631-.777-.423-.211-.823-.317-1.203-.317-.353 0-.53.224-.53.67 0 .282.116.571.347.865.23.294.509.441.836.441zm10.18 4.516c.976-.494 1.466-1.129 1.466-1.904 0-.682-.558-1.07-1.67-1.165-.163 0-.516.036-1.058.106-.544.07-.938.106-1.18.106-.083 0-.355-.059-.816-.176.027-.306.448-.6 1.263-.883.813-.282 1.22-.847 1.22-1.694 0-.211-.013-.447-.039-.705-.137-.777-.761-1.165-1.874-1.165-2.58 0-4.777 2.023-6.595 6.07.188.376 1.206.823 3.054 1.34 1.681.471 2.862.706 3.54.706.98 0 1.875-.211 2.69-.636zm4.632-3.73c.298-.189.448-.614.448-1.276 0-.638-.42-.956-1.258-.956-.461 0-.886.135-1.279.407-.393.272-.59.597-.59.973 0 .663.38.994 1.138.994.81 0 1.325-.047 1.541-.142zm-.317-8.514c.733 0 1.101-.247 1.101-.741 0-.306-.15-.73-.448-1.27-.761-1.271-2.43-1.906-5.01-1.906-.297 0-.758.011-1.383.034h-1.385c-1.358 0-2.036.577-2.036 1.73 0 1.53.544 2.953 1.628 4.27 1.168 1.459 2.594 2.187 4.277 2.187.433 0 .862-.163 1.281-.494.423-.328.632-.681.632-1.057 0-.847-.557-1.59-1.67-2.225.19-.47.53-.705 1.018-.705.219 0 .543.03.977.089.436.058.775.088 1.018.088zm9.764 12.413c.786-.4 1.18-.8 1.18-1.199 0-.893-.475-1.456-1.423-1.691-.895-.094-1.791-.2-2.686-.318 0-.424.414-.794 1.24-1.111.83-.317 1.241-.792 1.241-1.426 0-.47-.21-.858-.63-1.165a2.4 2.4 0 0 0-1.444-.457c-1.356 0-2.671.635-3.944 1.902-1.087 1.106-1.832 2.304-2.24 3.596.57.494 1.642 1.029 3.216 1.604 1.571.576 2.751.864 3.537.864.516 0 1.166-.2 1.953-.6zm1.617-9.051c.34-.377.509-.766.509-1.166 0-1.107-.935-2.073-2.808-2.897-.083-.094-.122-.177-.122-.247 0-.26.243-.39.733-.39.407 0 1.003.095 1.79.284.787.188 1.357.282 1.711.282.488 0 .902-.123 1.24-.37.34-.248.51-.585.51-1.008 0-.8-.692-1.485-2.075-2.05-1.169-.47-2.282-.705-3.34-.705-.245 0-.501.023-.774.07l-3.012.566c-1.412.376-2.119.86-2.119 1.448 0 .495.694 1.625 2.077 3.392 1.386 1.766 2.363 2.755 2.933 2.967.704.26 1.22.39 1.546.39.461 0 .862-.19 1.201-.566zm2.708 5.46c.87 0 1.303-.4 1.303-1.2 0-1.058-.625-1.588-1.873-1.588-.679 0-1.018.377-1.018 1.13 0 .306.176.658.53 1.057.353.401.705.601 1.058.601zm1.75-6.246c.164-.4.246-.682.246-.848 0-.658-.354-.987-1.058-.987-.327 0-.7.135-1.121.406-.421.27-.632.523-.632.759 0 .211.177.44.53.688.353.247.653.37.896.37.678 0 1.06-.13 1.14-.388zm1.973.741c0 .682.366 1.024 1.1 1.024.352 0 .697-.1 1.038-.3.338-.2.509-.442.509-.724s-.158-.53-.469-.74c-.312-.214-.63-.319-.957-.319-.814 0-1.221.352-1.221 1.06zm8.795 8.249c.922-.423 1.384-.916 1.384-1.48 0-.354-.285-.723-.855-1.112-.57-.387-1.085-.533-1.547-.44-.081 0-.34.06-.774.176a2.602 2.602 0 0 1-.773.141c-.407 0-.611-.234-.611-.705 1.574-.962 2.362-1.749 2.362-2.36 0-.493-.679-.74-2.036-.74-1.249 0-2.525.629-3.828 1.886s-1.954 2.437-1.954 3.54c0 .471.923.881 2.769 1.235 1.41.258 2.592.387 3.542.387.733 0 1.507-.176 2.321-.528zm1.1-8.585c.542-.317.814-.675.814-1.075 0-.73-.882-1.506-2.647-2.33v-.14c0-.377.163-.565.489-.565.27 0 .672.076 1.2.229.53.153.93.228 1.202.228 1.085 0 1.792-.716 2.117-2.151-.354-.588-.963-1.088-1.832-1.501-.869-.41-1.696-.617-2.484-.617-.76 0-1.852.16-3.278.477-1.425.317-2.517.476-3.277.476-.462 0-.693.188-.693.565 0 1.67 1.303 3.517 3.91 5.54 1.14.894 2.117 1.341 2.931 1.341.489 0 1.005-.16 1.547-.477zm1.71 4.747c.162 0 .4-.117.712-.352.312-.236.468-.412.468-.53 0-.306-.21-.564-.63-.777-.421-.211-.822-.317-1.202-.317-.353 0-.53.224-.53.67 0 .282.116.571.347.865.23.294.509.441.835.441zm10.18 4.516c.976-.494 1.465-1.129 1.465-1.904 0-.682-.556-1.07-1.67-1.165-.162 0-.515.036-1.058.106s-.937.106-1.18.106c-.082 0-.354-.059-.815-.176.026-.306.448-.6 1.262-.883.814-.282 1.222-.847 1.222-1.694 0-.211-.014-.447-.041-.705-.136-.777-.76-1.165-1.873-1.165-2.58 0-4.778 2.023-6.597 6.07.19.376 1.208.823 3.054 1.34 1.682.471 2.864.706 3.543.706.977 0 1.873-.211 2.687-.636zm4.633-3.73c.297-.189.446-.614.446-1.276 0-.638-.42-.956-1.258-.956a2.2 2.2 0 0 0-1.279.407c-.392.272-.588.597-.588.973 0 .663.379.994 1.136.994.812 0 1.326-.047 1.543-.142zm-.318-8.514c.733 0 1.1-.247 1.1-.741 0-.306-.15-.73-.448-1.27-.76-1.271-2.43-1.906-5.008-1.906-.3 0-.76.011-1.385.034h-1.384c-1.358 0-2.036.577-2.036 1.73 0 1.53.543 2.953 1.628 4.27 1.166 1.459 2.593 2.187 4.276 2.187.434 0 .862-.163 1.283-.494.42-.328.63-.681.63-1.057 0-.847-.557-1.59-1.669-2.225.19-.47.53-.705 1.018-.705.217 0 .542.03.977.089.435.058.774.088 1.018.088zm9.773 12.413c.787-.4 1.18-.8 1.18-1.199 0-.893-.476-1.456-1.424-1.691-.896-.094-1.792-.2-2.688-.318 0-.424.413-.794 1.242-1.111.828-.317 1.242-.792 1.242-1.426 0-.47-.21-.858-.631-1.165a2.407 2.407 0 0 0-1.446-.457c-1.357 0-2.674.635-3.95 1.902-1.085 1.106-1.832 2.304-2.239 3.596.57.494 1.642 1.029 3.217 1.604 1.573.576 2.754.864 3.542.864.515 0 1.168-.2 1.955-.6zm1.608-9.051c.34-.377.51-.766.51-1.166 0-1.107-.937-2.073-2.81-2.897-.082-.094-.123-.177-.123-.247 0-.26.245-.39.733-.39.408 0 1.005.095 1.792.284.787.188 1.357.282 1.71.282.489 0 .903-.123 1.242-.37.34-.248.51-.585.51-1.008 0-.8-.693-1.485-2.078-2.05-1.167-.47-2.28-.705-3.338-.705-.245 0-.503.023-.774.07l-3.013.566c-1.412.376-2.118.86-2.118 1.448 0 .495.693 1.625 2.077 3.392 1.384 1.766 2.362 2.755 2.932 2.967.705.26 1.221.39 1.547.39.461 0 .862-.19 1.201-.566zm2.708 5.46c.869 0 1.303-.4 1.303-1.2 0-1.058-.624-1.588-1.873-1.588-.679 0-1.018.377-1.018 1.13 0 .306.176.658.53 1.057.352.401.705.601 1.058.601zm1.75-6.246c.164-.4.245-.682.245-.848 0-.658-.353-.987-1.058-.987-.326 0-.7.135-1.12.406-.422.27-.631.523-.631.759 0 .211.176.44.529.688.352.247.651.37.896.37.678 0 1.058-.13 1.14-.388zm1.869.741c0 .682.363 1.024 1.093 1.024.352 0 .697-.1 1.036-.3.337-.2.507-.442.507-.724s-.157-.53-.468-.74a1.664 1.664 0 0 0-.953-.319c-.811 0-1.215.352-1.215 1.06zm8.793 8.249c.923-.423 1.386-.916 1.386-1.48 0-.354-.285-.723-.855-1.112-.57-.387-1.087-.533-1.549-.44-.08 0-.339.06-.772.176a2.61 2.61 0 0 1-.775.141c-.406 0-.61-.234-.61-.705 1.574-.962 2.362-1.749 2.362-2.36 0-.493-.678-.74-2.036-.74-1.248 0-2.526.629-3.829 1.886-1.302 1.257-1.953 2.437-1.953 3.54 0 .471.922.881 2.77 1.235 1.41.258 2.59.387 3.54.387.733 0 1.508-.176 2.321-.528zm1.101-8.585c.542-.317.813-.675.813-1.075 0-.73-.882-1.506-2.647-2.33v-.14c0-.377.163-.565.489-.565.271 0 .673.076 1.201.229.53.153.93.228 1.201.228 1.086 0 1.792-.716 2.12-2.151-.355-.588-.965-1.088-1.835-1.501-.868-.41-1.696-.617-2.482-.617-.761 0-1.853.16-3.278.477-1.426.317-2.519.476-3.278.476-.463 0-.693.188-.693.565 0 1.67 1.303 3.517 3.909 5.54 1.141.894 2.117 1.341 2.931 1.341.489 0 1.005-.16 1.55-.477zm1.709 4.747c.164 0 .4-.117.714-.352.31-.236.468-.412.468-.53 0-.306-.212-.564-.631-.777-.422-.211-.823-.317-1.203-.317-.352 0-.529.224-.529.67 0 .282.115.571.346.865.23.294.51.441.835.441zm10.18 4.516c.977-.494 1.467-1.129 1.467-1.904 0-.682-.558-1.07-1.671-1.165-.163 0-.516.036-1.057.106-.545.07-.938.106-1.181.106-.083 0-.354-.059-.816-.176.027-.306.448-.6 1.264-.883.813-.282 1.22-.847 1.22-1.694 0-.211-.014-.447-.04-.705-.137-.777-.76-1.165-1.874-1.165-2.579 0-4.778 2.023-6.595 6.07.189.376 1.207.823 3.054 1.34 1.682.471 2.862.706 3.541.706.979 0 1.875-.211 2.688-.636zm4.641-3.73c.299-.189.448-.614.448-1.276 0-.638-.42-.956-1.26-.956-.463 0-.891.135-1.285.407-.393.272-.59.597-.59.973 0 .663.38.994 1.141.994.814 0 1.33-.047 1.546-.142zm-.316-8.514c.733 0 1.101-.247 1.101-.741 0-.306-.15-.73-.448-1.27-.762-1.271-2.432-1.906-5.015-1.906-.298 0-.759.011-1.384.034h-1.387c-1.359 0-2.038.577-2.038 1.73 0 1.53.545 2.953 1.63 4.27 1.169 1.459 2.595 2.187 4.281 2.187.434 0 .862-.163 1.283-.494.422-.328.632-.681.632-1.057 0-.847-.557-1.59-1.671-2.225.19-.47.53-.705 1.018-.705.22 0 .544.03.979.089.434.058.774.088 1.019.088zm9.772 12.413c.788-.4 1.182-.8 1.182-1.199 0-.893-.476-1.456-1.425-1.691-.898-.094-1.795-.2-2.692-.318 0-.424.415-.794 1.243-1.111.83-.317 1.244-.792 1.244-1.426 0-.47-.211-.858-.632-1.165a2.408 2.408 0 0 0-1.447-.457c-1.359 0-2.677.635-3.952 1.902-1.089 1.106-1.836 2.304-2.244 3.596.571.494 1.644 1.029 3.222 1.604 1.574.576 2.756.864 3.544.864.517 0 1.169-.2 1.957-.6zm1.6-9.051c.339-.377.508-.766.508-1.166 0-1.107-.936-2.073-2.808-2.897-.083-.094-.122-.177-.122-.247 0-.26.243-.39.733-.39.407 0 1.003.095 1.79.284.788.188 1.358.282 1.712.282.487 0 .901-.123 1.24-.37.34-.248.51-.585.51-1.008 0-.8-.693-1.485-2.076-2.05-1.169-.47-2.282-.705-3.339-.705-.246 0-.502.023-.775.07l-3.012.566c-1.411.376-2.118.86-2.118 1.448 0 .495.693 1.625 2.076 3.392 1.386 1.766 2.363 2.755 2.932 2.967.706.26 1.222.39 1.547.39.462 0 .862-.19 1.201-.566zm2.707 5.46c.87 0 1.303-.4 1.303-1.2 0-1.058-.624-1.588-1.873-1.588-.678 0-1.018.377-1.018 1.13 0 .306.177.658.531 1.057.351.401.704.601 1.057.601zm1.751-6.246c.163-.4.246-.682.246-.848 0-.658-.354-.987-1.06-.987-.326 0-.7.135-1.12.406-.42.27-.631.523-.631.759 0 .211.176.44.53.688.352.247.652.37.895.37.679 0 1.059-.13 1.14-.388zm1.971.741c0 .682.365 1.024 1.095 1.024.352 0 .695-.1 1.035-.3.336-.2.507-.442.507-.724s-.157-.53-.467-.74c-.31-.214-.629-.319-.953-.319-.811 0-1.217.352-1.217 1.06zm8.795 8.249c.922-.423 1.385-.916 1.385-1.48 0-.354-.285-.723-.856-1.112-.57-.387-1.085-.533-1.547-.44-.081 0-.34.06-.773.176a2.602 2.602 0 0 1-.774.141c-.407 0-.61-.234-.61-.705 1.574-.962 2.36-1.749 2.36-2.36 0-.493-.678-.74-2.035-.74-1.249 0-2.525.629-3.828 1.886s-1.954 2.437-1.954 3.54c0 .471.923.881 2.769 1.235 1.41.258 2.592.387 3.542.387.733 0 1.507-.176 2.321-.528zm1.107-8.585c.543-.317.815-.675.815-1.075 0-.73-.884-1.506-2.65-2.33v-.14c0-.377.164-.565.49-.565.27 0 .672.076 1.202.229.53.153.93.228 1.202.228 1.086 0 1.794-.716 2.12-2.151-.355-.588-.965-1.088-1.834-1.501-.87-.41-1.698-.617-2.486-.617-.761 0-1.855.16-3.281.477-1.426.317-2.52.476-3.28.476-.463 0-.693.188-.693.565 0 1.67 1.304 3.517 3.91 5.54 1.143.894 2.121 1.341 2.936 1.341.49 0 1.005-.16 1.549-.477zm1.703 4.747c.163 0 .4-.117.712-.352.312-.236.469-.412.469-.53 0-.306-.21-.564-.632-.777-.42-.211-.82-.317-1.2-.317-.354 0-.53.224-.53.67 0 .282.115.571.346.865.23.294.509.441.835.441zm10.18 4.516c.977-.494 1.465-1.129 1.465-1.904 0-.682-.556-1.07-1.67-1.165-.162 0-.515.036-1.058.106s-.936.106-1.18.106c-.082 0-.355-.059-.815-.176.026-.306.448-.6 1.262-.883.814-.282 1.222-.847 1.222-1.694 0-.211-.014-.447-.041-.705-.136-.777-.76-1.165-1.873-1.165-2.58 0-4.778 2.023-6.596 6.07.19.376 1.207.823 3.053 1.34 1.682.471 2.864.706 3.543.706.977 0 1.873-.211 2.687-.636zm4.641-3.73c.299-.189.448-.614.448-1.276 0-.638-.422-.956-1.262-.956-.462 0-.89.135-1.283.407-.393.272-.592.597-.592.973 0 .663.382.994 1.142.994.814 0 1.33-.047 1.547-.142zm-.317-8.514c.734 0 1.1-.247 1.1-.741 0-.306-.149-.73-.447-1.27-.761-1.271-2.432-1.906-5.014-1.906-.299 0-.76.011-1.385.034h-1.386c-1.359 0-2.038.577-2.038 1.73 0 1.53.543 2.953 1.63 4.27 1.167 1.459 2.595 2.187 4.28 2.187.435 0 .862-.163 1.284-.494.42-.328.63-.681.63-1.057 0-.847-.557-1.59-1.67-2.225.19-.47.53-.705 1.02-.705.217 0 .541.03.977.089.435.058.775.088 1.02.088zm9.764 12.413c.787-.4 1.18-.8 1.18-1.199 0-.893-.476-1.456-1.424-1.691-.896-.094-1.792-.2-2.688-.318 0-.424.413-.794 1.242-1.111.828-.317 1.242-.792 1.242-1.426 0-.47-.21-.858-.631-1.165a2.407 2.407 0 0 0-1.446-.457c-1.357 0-2.673.635-3.95 1.902-1.085 1.106-1.832 2.304-2.239 3.596.57.494 1.642 1.029 3.217 1.604 1.573.576 2.754.864 3.541.864.516 0 1.169-.2 1.956-.6zm1.607-9.051c.34-.377.509-.766.509-1.166 0-1.107-.935-2.073-2.808-2.897-.082-.094-.122-.177-.122-.247 0-.26.244-.39.732-.39.408 0 1.005.095 1.792.284.787.188 1.357.282 1.71.282.489 0 .901-.123 1.24-.37.34-.248.51-.585.51-1.008 0-.8-.691-1.485-2.075-2.05-1.168-.47-2.28-.705-3.34-.705-.244 0-.502.023-.773.07l-3.013.566c-1.412.376-2.118.86-2.118 1.448 0 .495.693 1.625 2.077 3.392 1.384 1.766 2.362 2.755 2.932 2.967.706.26 1.22.39 1.547.39.462 0 .86-.19 1.2-.566zm2.71 5.46c.868 0 1.302-.4 1.302-1.2 0-1.058-.624-1.588-1.873-1.588-.679 0-1.018.377-1.018 1.13 0 .306.176.658.53 1.057.352.401.705.601 1.058.601zm1.75-6.246c.163-.4.244-.682.244-.848 0-.658-.353-.987-1.058-.987-.326 0-.7.135-1.12.406-.422.27-.631.523-.631.759 0 .211.176.44.529.688.352.247.652.37.896.37.678 0 1.059-.13 1.14-.388zm207.925.887c0-.8-.311-1.2-.935-1.2-.165 0-.423.065-.775.194-.352.128-.625.181-.813.16-.436.258-.653.61-.653 1.058 0 .706.38 1.058 1.14 1.058.434 0 .882-.129 1.344-.388.461-.26.692-.553.692-.882zm-10.628-7.076c-.461.27-.692.57-.692.9 0 .659.461 1.07 1.384 1.235.245.023 1.005.036 2.28.036.328 0 .476.234.449.706v.176c-1.14.612-1.833 1-2.077 1.165-.759.564-1.14 1.176-1.14 1.835 0 .705.678 1.058 2.036 1.058 1.06 0 2.463-.794 4.214-2.382 1.751-1.588 2.694-2.852 2.83-3.793-.19-.33-.99-.683-2.402-1.06-1.275-.329-2.225-.493-2.85-.493-.3 0-.754.035-1.365.106-.61.07-1.064.106-1.364.106-.407 0-.84.135-1.303.405zm-14.7 1.041c0 .706.667 1.206 2 1.5 1.33.294 2.024.57 2.077.83l-2.038.776c-.924.376-1.386.776-1.386 1.2 0 .33.26.604.776.83.516.223.977.334 1.384.334.924 0 2.283-.6 4.076-1.8 1.875-1.223 2.814-2.2 2.814-2.928 0-.26-.096-.437-.285-.53-.353-.094-.83-.235-1.428-.423-2.69-.941-4.443-1.412-5.257-1.412-.409 0-.939.147-1.59.441-.653.294-1.033.594-1.142.9zm-4.315 2.188c.217.73.829 1.094 1.832 1.094.626 0 .937-.482.937-1.446 0-.283-.367-.424-1.098-.424-.3 0-.625.059-.98.176-.46.142-.691.318-.691.53zm-14.934 2.007c-1.086 0-1.63.353-1.63 1.062 0 .876.434 1.313 1.304 1.313.678 0 1.153-.19 1.425-.569.054-.093.081-.33.081-.707 0-.473-.068-.774-.203-.904-.137-.13-.462-.195-.977-.195zm-14.822-.953c-.57 0-.855.353-.855 1.058 0 .542.366.812 1.1.812.46 0 .766-.058.915-.177.15-.116.224-.388.224-.81 0-.589-.461-.883-1.384-.883zm-29.088.953c-1.086 0-1.63.353-1.63 1.062 0 .876.434 1.313 1.303 1.313.679 0 1.154-.19 1.425-.569.054-.093.083-.33.083-.707 0-.473-.07-.774-.205-.904-.136-.13-.46-.195-.976-.195zm-14.821-.953c-.57 0-.856.353-.856 1.058 0 .542.366.812 1.099.812.461 0 .768-.058.916-.177.15-.116.224-.388.224-.81 0-.589-.462-.883-1.383-.883zm-28.988.953c-1.084 0-1.629.353-1.629 1.062 0 .876.433 1.313 1.303 1.313.679 0 1.154-.19 1.425-.569.055-.093.082-.33.082-.707 0-.473-.068-.774-.204-.904-.137-.13-.461-.195-.977-.195zm-14.821-.953c-.57 0-.854.353-.854 1.058 0 .542.365.812 1.098.812.461 0 .768-.058.916-.177.15-.116.224-.388.224-.81 0-.589-.461-.883-1.384-.883zm-29.088.953c-1.086 0-1.63.353-1.63 1.062 0 .876.434 1.313 1.304 1.313.679 0 1.152-.19 1.424-.569.054-.093.082-.33.082-.707 0-.473-.069-.774-.204-.904-.136-.13-.46-.195-.976-.195zm-14.822-.953c-.57 0-.855.353-.855 1.058 0 .542.365.812 1.1.812.46 0 .766-.058.914-.177.15-.116.224-.388.224-.81 0-.589-.46-.883-1.383-.883zm-14.821 2.647c0 .682.365 1.024 1.098 1.024.353 0 .699-.1 1.04-.3.337-.2.508-.442.508-.724s-.157-.53-.47-.74a1.672 1.672 0 0 0-.956-.319c-.813 0-1.22.352-1.22 1.06zm8.785 8.249c.922-.423 1.384-.916 1.384-1.48 0-.354-.285-.723-.854-1.112-.57-.387-1.086-.533-1.547-.44-.08 0-.34.06-.772.176-.3.095-.556.141-.773.141-.406 0-.61-.234-.61-.705 1.573-.962 2.36-1.749 2.36-2.36 0-.493-.678-.74-2.034-.74-1.248 0-2.524.629-3.825 1.886-1.3 1.257-1.952 2.437-1.952 3.54 0 .471.923.881 2.767 1.235 1.408.258 2.588.387 3.537.387.732 0 1.507-.176 2.319-.528zm1.102-8.585c.541-.317.814-.675.814-1.075 0-.73-.883-1.506-2.646-2.33v-.14c0-.377.163-.565.49-.565.27 0 .67.076 1.198.229.53.153.93.228 1.2.228 1.085 0 1.792-.716 2.117-2.151-.354-.588-.963-1.088-1.832-1.501-.866-.41-1.695-.617-2.48-.617-.76 0-1.851.16-3.275.477-1.425.317-2.516.476-3.275.476-.463 0-.693.188-.693.565 0 1.67 1.302 3.517 3.905 5.54 1.14.894 2.117 1.341 2.93 1.341.49 0 1.005-.16 1.547-.477zm1.717 4.747c.163 0 .4-.117.713-.352.312-.236.468-.412.468-.53 0-.306-.21-.564-.63-.777-.423-.211-.822-.317-1.203-.317-.353 0-.528.224-.528.67 0 .282.115.571.344.865.231.294.51.441.836.441zm10.18 4.516c.976-.494 1.466-1.129 1.466-1.904 0-.682-.557-1.07-1.671-1.165-.163 0-.516.036-1.057.106-.543.07-.937.106-1.181.106-.083 0-.354-.059-.816-.176.027-.306.448-.6 1.264-.883.814-.282 1.22-.847 1.22-1.694 0-.211-.012-.447-.04-.705-.135-.777-.76-1.165-1.874-1.165-2.579 0-4.776 2.023-6.595 6.07.19.376 1.208.823 3.054 1.34 1.682.471 2.863.706 3.541.706.979 0 1.875-.211 2.689-.636zm4.642-3.73c.297-.189.448-.614.448-1.276 0-.638-.422-.956-1.262-.956a2.21 2.21 0 0 0-1.283.407c-.394.272-.592.597-.592.973 0 .663.38.994 1.142.994.814 0 1.328-.047 1.547-.142zm-.327-8.514c.733 0 1.1-.247 1.1-.741 0-.306-.149-.73-.447-1.27-.762-1.271-2.43-1.906-5.01-1.906-.297 0-.759.011-1.383.034h-1.386c-1.357 0-2.036.577-2.036 1.73 0 1.53.544 2.953 1.63 4.27 1.166 1.459 2.593 2.187 4.276 2.187.433 0 .862-.163 1.28-.494.423-.328.632-.681.632-1.057 0-.847-.556-1.59-1.668-2.225.189-.47.528-.705 1.018-.705.217 0 .541.03.976.089.436.058.775.088 1.018.088zm9.782 12.413c.788-.4 1.182-.8 1.182-1.199 0-.893-.476-1.456-1.426-1.691-.897-.094-1.794-.2-2.692-.318 0-.424.415-.794 1.243-1.111.83-.317 1.245-.792 1.245-1.426 0-.47-.212-.858-.632-1.165a2.412 2.412 0 0 0-1.448-.457c-1.359 0-2.675.635-3.952 1.902-1.089 1.106-1.836 2.304-2.242 3.596.57.494 1.644 1.029 3.22 1.604 1.575.576 2.757.864 3.545.864.516 0 1.17-.2 1.957-.6zm1.599-9.051c.339-.377.509-.766.509-1.166 0-1.107-.936-2.073-2.809-2.897-.082-.094-.122-.177-.122-.247 0-.26.245-.39.733-.39.407 0 1.003.095 1.79.284.788.188 1.358.282 1.712.282.487 0 .901-.123 1.24-.37.34-.248.51-.585.51-1.008 0-.8-.693-1.485-2.076-2.05-1.167-.47-2.281-.705-3.339-.705a4.52 4.52 0 0 0-.773.07l-3.014.566c-1.411.376-2.118.86-2.118 1.448 0 .495.693 1.625 2.078 3.392 1.384 1.766 2.361 2.755 2.931 2.967.705.26 1.22.39 1.546.39.462 0 .862-.19 1.202-.566zm2.707 5.46c.87 0 1.303-.4 1.303-1.2 0-1.058-.624-1.588-1.873-1.588-.678 0-1.018.377-1.018 1.13 0 .306.177.658.531 1.057.353.401.706.601 1.057.601zm1.751-6.246c.163-.4.246-.682.246-.848 0-.658-.354-.987-1.059-.987-.327 0-.7.135-1.12.406-.422.27-.63.523-.63.759 0 .211.176.44.527.688.353.247.653.37.896.37.679 0 1.06-.13 1.14-.388zm1.971.741c0 .682.367 1.024 1.1 1.024.352 0 .698-.1 1.04-.3.337-.2.508-.442.508-.724s-.159-.53-.47-.74c-.312-.214-.63-.319-.956-.319-.815 0-1.222.352-1.222 1.06zm8.787 8.249c.922-.423 1.383-.916 1.383-1.48 0-.354-.284-.723-.853-1.112-.57-.387-1.086-.533-1.547-.44-.082 0-.34.06-.772.176-.3.095-.557.141-.774.141-.405 0-.61-.234-.61-.705 1.573-.962 2.36-1.749 2.36-2.36 0-.493-.679-.74-2.035-.74-1.247 0-2.522.629-3.824 1.886-1.301 1.257-1.95 2.437-1.95 3.54 0 .471.92.881 2.765 1.235 1.41.258 2.589.387 3.538.387.732 0 1.505-.176 2.319-.528zm1.109-8.585c.542-.317.813-.675.813-1.075 0-.73-.882-1.506-2.647-2.33v-.14c0-.377.163-.565.489-.565.27 0 .672.076 1.201.229.53.153.93.228 1.201.228 1.086 0 1.792-.716 2.118-2.151-.353-.588-.964-1.088-1.833-1.501-.868-.41-1.696-.617-2.482-.617-.762 0-1.854.16-3.278.477-1.426.317-2.52.476-3.278.476-.463 0-.693.188-.693.565 0 1.67 1.303 3.517 3.909 5.54 1.141.894 2.117 1.341 2.931 1.341.489 0 1.005-.16 1.549-.477zm1.709 4.747c.163 0 .4-.117.714-.352.31-.236.467-.412.467-.53 0-.306-.21-.564-.63-.777-.422-.211-.823-.317-1.203-.317-.353 0-.529.224-.529.67 0 .282.115.571.346.865.23.294.51.441.835.441zm10.18 4.516c.977-.494 1.465-1.129 1.465-1.904 0-.682-.556-1.07-1.67-1.165-.162 0-.515.036-1.056.106-.545.07-.938.106-1.183.106-.081 0-.353-.059-.814-.176.026-.306.448-.6 1.264-.883.813-.282 1.22-.847 1.22-1.694 0-.211-.014-.447-.04-.705-.137-.777-.761-1.165-1.874-1.165-2.58 0-4.778 2.023-6.596 6.07.19.376 1.208.823 3.053 1.34 1.684.471 2.864.706 3.543.706.979 0 1.874-.211 2.687-.636zm4.641-3.73c.299-.189.448-.614.448-1.276 0-.638-.42-.956-1.26-.956-.464 0-.891.135-1.285.407-.393.272-.59.597-.59.973 0 .663.38.994 1.141.994.813 0 1.33-.047 1.546-.142zm-.325-8.514c.733 0 1.1-.247 1.1-.741 0-.306-.15-.73-.449-1.27-.76-1.271-2.43-1.906-5.008-1.906-.299 0-.76.011-1.385.034h-1.384c-1.357 0-2.036.577-2.036 1.73 0 1.53.543 2.953 1.629 4.27 1.167 1.459 2.592 2.187 4.276 2.187.433 0 .861-.163 1.282-.494.42-.328.63-.681.63-1.057 0-.847-.556-1.59-1.669-2.225.19-.47.53-.705 1.018-.705.218 0 .543.03.978.089.434.058.773.088 1.018.088zm9.78 12.413c.789-.4 1.183-.8 1.183-1.199 0-.893-.476-1.456-1.427-1.691-.896-.094-1.793-.2-2.69-.318 0-.424.415-.794 1.243-1.111.83-.317 1.243-.792 1.243-1.426 0-.47-.21-.858-.631-1.165a2.408 2.408 0 0 0-1.447-.457c-1.359 0-2.677.635-3.953 1.902-1.088 1.106-1.835 2.304-2.243 3.596.57.494 1.644 1.029 3.22 1.604 1.576.576 2.758.864 3.546.864.517 0 1.169-.2 1.957-.6zm1.6-9.051c.34-.377.51-.766.51-1.166 0-1.107-.937-2.073-2.81-2.897-.082-.094-.121-.177-.121-.247 0-.26.243-.39.733-.39.406 0 1.003.095 1.79.284.787.188 1.357.282 1.712.282.487 0 .901-.123 1.24-.37.34-.248.51-.585.51-1.008 0-.8-.693-1.485-2.077-2.05-1.168-.47-2.28-.705-3.34-.705-.244 0-.501.023-.773.07l-3.013.566c-1.412.376-2.117.86-2.117 1.448 0 .495.693 1.625 2.076 3.392 1.386 1.766 2.362 2.755 2.932 2.967.706.26 1.221.39 1.547.39.462 0 .862-.19 1.201-.566zm2.708 5.46c.869 0 1.303-.4 1.303-1.2 0-1.058-.624-1.588-1.873-1.588-.679 0-1.018.377-1.018 1.13 0 .306.177.658.53 1.057.352.401.705.601 1.058.601zm1.751-6.246c.163-.4.246-.682.246-.848 0-.658-.355-.987-1.06-.987-.326 0-.7.135-1.12.406-.42.27-.631.523-.631.759 0 .211.176.44.53.688.352.247.65.37.895.37.679 0 1.059-.13 1.14-.388zm1.869.741c0 .682.365 1.024 1.098 1.024.353 0 .7-.1 1.04-.3.338-.2.509-.442.509-.724s-.158-.53-.47-.74a1.675 1.675 0 0 0-.957-.319c-.813 0-1.22.352-1.22 1.06zm8.794 8.249c.923-.423 1.386-.916 1.386-1.48 0-.354-.285-.723-.855-1.112-.57-.387-1.088-.533-1.55-.44-.08 0-.338.06-.771.176-.3.095-.557.141-.774.141-.407 0-.612-.234-.612-.705 1.576-.962 2.363-1.749 2.363-2.36 0-.493-.679-.74-2.036-.74-1.249 0-2.526.629-3.829 1.886-1.303 1.257-1.953 2.437-1.953 3.54 0 .471.923.881 2.769 1.235 1.41.258 2.59.387 3.54.387.734 0 1.509-.176 2.322-.528zm1.093-8.585c.541-.317.813-.675.813-1.075 0-.73-.882-1.506-2.645-2.33v-.14c0-.377.163-.565.49-.565.27 0 .671.076 1.199.229.53.153.929.228 1.2.228 1.085 0 1.79-.716 2.117-2.151-.354-.588-.963-1.088-1.832-1.501-.868-.41-1.696-.617-2.48-.617-.762 0-1.852.16-3.276.477-1.425.317-2.515.476-3.275.476-.462 0-.693.188-.693.565 0 1.67 1.302 3.517 3.906 5.54 1.14.894 2.117 1.341 2.93 1.341.489 0 1.003-.16 1.546-.477zm1.723 4.747c.163 0 .402-.117.715-.352.314-.236.47-.412.47-.53 0-.306-.212-.564-.633-.777-.424-.211-.826-.317-1.208-.317-.354 0-.53.224-.53.67 0 .282.114.571.346.865.232.294.511.441.84.441zm10.174 4.516c.976-.494 1.466-1.129 1.466-1.904 0-.682-.556-1.07-1.67-1.165-.163 0-.516.036-1.058.106-.543.07-.936.106-1.18.106-.083 0-.355-.059-.816-.176.027-.306.447-.6 1.263-.883.815-.282 1.22-.847 1.22-1.694 0-.211-.012-.447-.039-.705-.137-.777-.761-1.165-1.874-1.165-2.58 0-4.777 2.023-6.595 6.07.188.376 1.206.823 3.053 1.34 1.682.471 2.863.706 3.542.706.978 0 1.874-.211 2.688-.636zm4.642-3.73c.298-.189.448-.614.448-1.276 0-.638-.422-.956-1.262-.956a2.21 2.21 0 0 0-1.283.407c-.393.272-.591.597-.591.973 0 .663.38.994 1.141.994.814 0 1.329-.047 1.547-.142zm-.327-8.514c.733 0 1.101-.247 1.101-.741 0-.306-.15-.73-.448-1.27-.761-1.271-2.43-1.906-5.01-1.906-.297 0-.758.011-1.383.034h-1.386c-1.357 0-2.035.577-2.035 1.73 0 1.53.544 2.953 1.63 4.27 1.166 1.459 2.592 2.187 4.275 2.187.433 0 .862-.163 1.281-.494.422-.328.632-.681.632-1.057 0-.847-.557-1.59-1.669-2.225.19-.47.528-.705 1.018-.705.218 0 .542.03.976.089.436.058.775.088 1.018.088zm9.774 12.413c.787-.4 1.18-.8 1.18-1.199 0-.893-.476-1.456-1.424-1.691-.896-.094-1.792-.2-2.69-.318 0-.424.415-.794 1.243-1.111.83-.317 1.242-.792 1.242-1.426 0-.47-.21-.858-.63-1.165a2.408 2.408 0 0 0-1.447-.457c-1.357 0-2.674.635-3.948 1.902-1.087 1.106-1.834 2.304-2.24 3.596.57.494 1.643 1.029 3.217 1.604 1.573.576 2.754.864 3.541.864.516 0 1.167-.2 1.956-.6zm1.607-9.051c.34-.377.509-.766.509-1.166 0-1.107-.935-2.073-2.808-2.897-.083-.094-.122-.177-.122-.247 0-.26.244-.39.733-.39.407 0 1.003.095 1.79.284.787.188 1.357.282 1.711.282.488 0 .902-.123 1.24-.37.34-.248.51-.585.51-1.008 0-.8-.692-1.485-2.075-2.05-1.169-.47-2.282-.705-3.34-.705a4.52 4.52 0 0 0-.773.07l-3.013.566c-1.412.376-2.119.86-2.119 1.448 0 .495.694 1.625 2.078 3.392 1.385 1.766 2.362 2.755 2.932 2.967.704.26 1.22.39 1.546.39.461 0 .862-.19 1.201-.566zm2.708 5.46c.87 0 1.303-.4 1.303-1.2 0-1.058-.625-1.588-1.873-1.588-.679 0-1.018.377-1.018 1.13 0 .306.176.658.53 1.057.353.401.705.601 1.058.601zm1.75-6.246c.164-.4.246-.682.246-.848 0-.658-.354-.987-1.058-.987-.327 0-.7.135-1.121.406-.421.27-.63.523-.63.759 0 .211.176.44.528.688.353.247.653.37.896.37.678 0 1.06-.13 1.14-.388zm1.971.741c0 .682.367 1.024 1.1 1.024.353 0 .699-.1 1.04-.3.338-.2.509-.442.509-.724s-.16-.53-.47-.74c-.312-.214-.631-.319-.957-.319-.814 0-1.222.352-1.222 1.06zm8.796 8.249c.923-.423 1.384-.916 1.384-1.48 0-.354-.285-.723-.854-1.112-.57-.387-1.087-.533-1.548-.44-.082 0-.34.06-.773.176-.3.095-.557.141-.775.141-.407 0-.61-.234-.61-.705 1.574-.962 2.361-1.749 2.361-2.36 0-.493-.678-.74-2.036-.74-1.248 0-2.524.629-3.827 1.886s-1.953 2.437-1.953 3.54c0 .471.921.881 2.769 1.235 1.41.258 2.59.387 3.54.387.734 0 1.507-.176 2.322-.528zm1.1-8.585c.542-.317.813-.675.813-1.075 0-.73-.882-1.506-2.646-2.33v-.14c0-.377.163-.565.488-.565.27 0 .672.076 1.202.229.53.153.93.228 1.2.228 1.087 0 1.792-.716 2.118-2.151-.353-.588-.964-1.088-1.832-1.501-.869-.41-1.697-.617-2.483-.617-.761 0-1.854.16-3.278.477-1.426.317-2.519.476-3.277.476-.463 0-.694.188-.694.565 0 1.67 1.303 3.517 3.909 5.54 1.14.894 2.117 1.341 2.932 1.341.488 0 1.004-.16 1.547-.477zm1.714 4.747c.164 0 .402-.117.717-.352.312-.236.47-.412.47-.53 0-.306-.212-.564-.635-.777-.422-.211-.824-.317-1.206-.317-.354 0-.532.224-.532.67 0 .282.116.571.348.865.232.294.511.441.838.441zm10.175 4.516c.977-.494 1.466-1.129 1.466-1.904 0-.682-.557-1.07-1.67-1.165-.163 0-.515.036-1.057.106-.544.07-.938.106-1.182.106-.082 0-.353-.059-.815-.176.026-.306.448-.6 1.263-.883.814-.282 1.221-.847 1.221-1.694 0-.211-.013-.447-.04-.705-.136-.777-.76-1.165-1.874-1.165-2.58 0-4.777 2.023-6.596 6.07.19.376 1.208.823 3.054 1.34 1.683.471 2.864.706 3.542.706.978 0 1.875-.211 2.688-.636zm4.633-3.73c.298-.189.447-.614.447-1.276 0-.638-.42-.956-1.257-.956-.462 0-.888.135-1.28.407-.392.272-.589.597-.589.973 0 .663.38.994 1.137.994.812 0 1.326-.047 1.542-.142zm-.317-8.514c.733 0 1.1-.247 1.1-.741 0-.306-.15-.73-.448-1.27-.76-1.271-2.43-1.906-5.009-1.906-.298 0-.76.011-1.384.034h-1.385c-1.357 0-2.036.577-2.036 1.73 0 1.53.543 2.953 1.63 4.27 1.165 1.459 2.592 2.187 4.275 2.187.434 0 .861-.163 1.282-.494.42-.328.631-.681.631-1.057 0-.847-.556-1.59-1.67-2.225.19-.47.53-.705 1.019-.705.217 0 .543.03.977.089.434.058.774.088 1.018.088zm9.772 12.413c.788-.4 1.181-.8 1.181-1.199 0-.893-.475-1.456-1.425-1.691-.896-.094-1.791-.2-2.687-.318 0-.424.414-.794 1.242-1.111.828-.317 1.242-.792 1.242-1.426 0-.47-.21-.858-.632-1.165a2.404 2.404 0 0 0-1.445-.457c-1.357 0-2.674.635-3.948 1.902-1.088 1.106-1.834 2.304-2.241 3.596.57.494 1.642 1.029 3.216 1.604 1.574.576 2.756.864 3.543.864.516 0 1.167-.2 1.954-.6zm1.609-9.051c.34-.377.509-.766.509-1.166 0-1.107-.937-2.073-2.81-2.897-.081-.094-.122-.177-.122-.247 0-.26.244-.39.734-.39.406 0 1.003.095 1.79.284.788.188 1.358.282 1.712.282.487 0 .901-.123 1.24-.37.34-.248.51-.585.51-1.008 0-.8-.693-1.485-2.077-2.05-1.167-.47-2.28-.705-3.339-.705-.244 0-.502.023-.774.07l-3.013.566c-1.411.376-2.117.86-2.117 1.448 0 .495.694 1.625 2.077 3.392 1.385 1.766 2.361 2.755 2.931 2.967.706.26 1.222.39 1.548.39.461 0 .862-.19 1.2-.566zm2.708 5.46c.868 0 1.303-.4 1.303-1.2 0-1.058-.625-1.588-1.873-1.588-.68 0-1.018.377-1.018 1.13 0 .306.176.658.53 1.057.352.401.705.601 1.058.601zm1.75-6.246c.163-.4.246-.682.246-.848 0-.658-.354-.987-1.06-.987-.326 0-.699.135-1.12.406-.422.27-.63.523-.63.759 0 .211.176.44.529.688.352.247.651.37.895.37.679 0 1.06-.13 1.14-.388zm4.655 7.07c.556-.448.833-.85.833-1.203 0-.732-.338-1.098-1.018-1.098-.894 0-1.5.093-1.812.283-.312.19-.468.65-.468 1.381 0 .874.34 1.31 1.018 1.31.407 0 .889-.225 1.447-.672zm11.786 1.651c.815-.353 1.223-.682 1.223-.988 0-.4-.45-1.158-1.345-2.276-.896-1.117-1.574-1.83-2.036-2.135-1.249-.847-2.266-1.27-3.054-1.27-.704 0-1.411.035-2.117.105-.216.024-.5.165-.855.424-.353.259-.53.47-.53.635 0 .424.24.9.714 1.43.474.529.936.851 1.384.97.447.118.671.353.671.706 0 .094-.04.194-.122.3-.081.106-.46.158-1.139.158-.137 0-.352-.011-.652-.035h-.65c-1.386 0-2.079.622-2.079 1.87 0 .542.408.976 1.222 1.306a6.095 6.095 0 0 0 2.077.353c.38 0 1.324-.119 2.83-.353 1.506-.235 2.397-.411 2.667-.53a56.595 56.595 0 0 1 1.791-.67zm1.671-11.998c-.246.306-.368.623-.368.953 0 .494.407.74 1.222.74.951 0 1.425-.211 1.425-.634 0-.4-.109-.753-.326-1.06-.27-.376-.61-.564-1.018-.564-.353 0-.663.188-.935.565zm1.588 9.952c.324 0 .733-.206 1.22-.618.489-.413.733-.723.733-.935 0-.047-.155-.112-.468-.194-.31-.083-.48-.137-.509-.16-1.16-.116-1.75-.183-1.793-.204-.593.02-.894.4-.894 1.158 0 .635.571.953 1.711.953zm12.703 1.517a.284.284 0 0 0 .04-.141c0-.73-.826-1.83-2.483-3.3-1.656-1.47-2.905-2.205-3.746-2.205-.625 0-1.222.106-1.792.317-.76.26-1.14.6-1.14 1.024 0 .517.314 1.035.938 1.552.95.753 1.45 1.165 1.505 1.236-.107.258-.657.429-1.649.511-.99.083-1.581.206-1.771.37-.435.33-.652.66-.652.989 0 .447.422.823 1.264 1.13.678.257 1.315.387 1.912.387.706 0 1.955-.247 3.748-.74 1.276-.377 2.55-.755 3.826-1.13zm7.797-3.97c2.294-1.235 3.441-2.017 3.441-2.347 0-.447-.692-1.223-2.076-2.329l-2.85-2.117c-.135-.024-.462-.142-.977-.353-.381-.165-.707-.247-.978-.247-.543 0-.991.258-1.343.776-.3.424-.447.882-.447 1.376 0 .706.434 1.236 1.301 1.588 1.086.446 1.697.789 1.832 1.024-.541.33-1.425.682-2.646 1.059-.706.023-1.1.317-1.181.882-.107.847-.216 1.353-.324 1.517.758.683 1.411 1.024 1.953 1.024.57 0 2.003-.618 4.295-1.853z"/></defs><g><g transform="translate(-325 -258)"><use fill="#5f4638" xlink:href="#2e2oa"/></g></g></svg>