<svg xmlns="http://www.w3.org/2000/svg" xmlns:xlink="http://www.w3.org/1999/xlink" width="22" height="18" viewBox="0 0 22 18"><defs><path id="sg1ra" d="M900.8 5102.13a8.81 8.81 0 0 1-2.568.716 4.533 4.533 0 0 0 1.966-2.513 8.81 8.81 0 0 1-2.84 1.101 4.43 4.43 0 0 0-3.265-1.434c-2.468 0-4.471 2.035-4.471 4.544 0 .356.038.702.115 1.035-3.717-.19-7.012-1.997-9.22-4.75a4.597 4.597 0 0 0-.605 2.287c0 1.576.79 2.967 1.99 3.782a4.417 4.417 0 0 1-2.027-.566v.055c0 2.203 1.542 4.04 3.59 4.456-.377.107-.77.16-1.18.16a4.36 4.36 0 0 1-.841-.08c.568 1.804 2.22 3.12 4.178 3.153a8.885 8.885 0 0 1-5.555 1.947c-.36 0-.718-.021-1.067-.063a12.532 12.532 0 0 0 6.856 2.04c8.228 0 12.726-6.923 12.726-12.928 0-.198-.004-.396-.013-.588a9.161 9.161 0 0 0 2.232-2.353"/></defs><g><g transform="translate(-879 -5100)"><use fill="#5f4638" xlink:href="#sg1ra"/></g></g></svg>